<svg width="36" height="37" viewBox="0 0 36 37" fill="none" xmlns="http://www.w3.org/2000/svg">
<path d="M20.61 6.84501C19.35 5.34501 18.255 3.84501 18.045 3.51501H18C17.79 3.83001 16.695 5.34501 15.435 6.84501C4.635 20.63 17.145 29.93 17.145 29.93L17.25 30.005C17.34 31.43 17.58 33.5 17.58 33.5H18.51C18.51 33.5 18.735 31.445 18.825 30.005L18.93 29.915C18.93 29.915 31.41 20.63 20.61 6.84501ZM18 29.72C17.7371 29.5041 17.496 29.2629 17.28 29L18 14L18.675 29C18.4726 29.2603 18.2467 29.5013 18 29.72Z" fill="#ED46F7"/>
</svg>
