<svg width="36" height="37" viewBox="0 0 36 37" fill="none" xmlns="http://www.w3.org/2000/svg">
<g clip-path="url(#clip0_62_159)">
<path d="M19.5 32C17.3595 30.461 14.115 26.219 13.5 23C12.771 24.155 11.2485 26 10.5 26C8.25149 24.668 9.63899 20.0405 10.5 17C8.10599 14.8505 6.79799 13.313 6.74999 11C1.72499 5.83999 6.08399 3.09499 10.5 6.49999H12C24.723 7.24999 21.6315 18.605 25.5 23.75C28.9425 24.533 30.9975 27.131 33 29C29.871 28.7 28.824 28.484 27.75 29C28.467 31.46 30.9345 32.3 33 33.5" stroke="#ED46F7" stroke-width="2" stroke-linecap="round" stroke-linejoin="round"/>
<path d="M13.5 11H13.515" stroke="#ED46F7" stroke-width="2" stroke-linecap="round" stroke-linejoin="round"/>
</g>
<defs>
<clipPath id="clip0_62_159">
<rect width="36" height="36" fill="white" transform="translate(0 0.5)"/>
</clipPath>
</defs>
</svg>
