<svg width="40" height="41" viewBox="0 0 40 41" fill="none" xmlns="http://www.w3.org/2000/svg">
<path d="M17.9 21.9834V21.8C18 21.55 18.1 21.3167 18.2167 21.0834C19.1391 19.1338 19.2938 16.9084 18.65 14.85C18.6164 14.556 18.4926 14.2797 18.2957 14.0589C18.0987 13.838 17.8383 13.6836 17.55 13.6167C16.3101 13.5304 15.0803 13.891 14.0834 14.6334V14.9334C14.1928 16.272 14.1593 17.6185 13.9834 18.95C13.8888 19.5477 13.9328 20.159 14.1119 20.737C14.2911 21.3149 14.6007 21.844 15.0167 22.2834C15.3232 22.6094 15.6921 22.8704 16.1016 23.0507C16.511 23.2311 16.9526 23.3273 17.4 23.3334C17.5424 22.8747 17.7093 22.4241 17.9 21.9834ZM16.6667 14.8C16.5731 14.6939 16.5199 14.5582 16.5167 14.4167C16.5268 14.3749 16.5453 14.3356 16.5711 14.3013C16.5969 14.2669 16.6294 14.2381 16.6667 14.2167C16.9127 14.089 17.1945 14.0479 17.4667 14.1C17.8834 14.1 18.3 14.3667 18.2667 14.6667C18.2045 14.8318 18.0924 14.9734 17.9461 15.072C17.7998 15.1705 17.6264 15.2211 17.45 15.2167H17.35C17.0762 15.1735 16.8305 15.0237 16.6667 14.8Z" fill="#ED46F7"/>
<path d="M13.1334 18.8333C13.2837 17.5613 13.3172 16.2781 13.2334 15V14.5333C13.1677 11.7819 14.0768 9.09591 15.8 6.95C14.1334 6.41667 10.1334 5.28333 7.68335 7.11667C6.18335 8.18333 5.48335 10.1833 5.63335 13.0333C5.96537 15.5233 6.52322 17.9778 7.30002 20.3667C8.43335 24.0667 9.71668 26.4 10.8167 26.7833C10.9834 26.7833 11.5 27 12.25 26.1C13.3167 24.8333 14.3 23.75 14.75 23.2667L14.4334 22.95C13.9113 22.4123 13.522 21.7601 13.2963 21.0455C13.0706 20.3308 13.0148 19.5733 13.1334 18.8333ZM18.9667 24.5C18.7 24.4 18.5667 24.3333 18.2667 24.6833C18.0883 24.8628 17.9266 25.0581 17.7834 25.2667C17.2 25.9833 16.95 26.2333 15.2667 26.5833C15.0387 26.6212 14.8153 26.6826 14.6 26.7667C14.7853 26.8965 14.9952 26.9872 15.2167 27.0333C15.9625 27.2856 16.7695 27.2922 17.5194 27.0523C18.2693 26.8123 18.9225 26.3384 19.3834 25.7C19.4264 25.6088 19.4487 25.5092 19.4487 25.4083C19.4487 25.3075 19.4264 25.2079 19.3834 25.1167C19.3306 24.8645 19.181 24.643 18.9667 24.5ZM29.45 14.8C29.5274 14.3651 29.572 13.9249 29.5834 13.4833C28.4834 13.35 27.2167 13.3667 26.7167 14.0833C25.75 15.4667 27.65 18.8833 28.3834 20.3333C28.5444 20.5906 28.6892 20.8578 28.8167 21.1333C28.8832 21.3132 28.9669 21.4862 29.0667 21.65C29.5007 20.5182 29.5934 19.284 29.3334 18.1C29.2536 17.5201 29.2146 16.9353 29.2167 16.35C29.2538 15.828 29.3318 15.3098 29.45 14.8ZM28.5167 14.5333C28.3724 14.6805 28.1861 14.7794 27.9834 14.8167H27.8834C27.7249 14.8173 27.57 14.7698 27.439 14.6806C27.3081 14.5913 27.2073 14.4644 27.15 14.3167C27.15 14.0833 27.4834 13.9167 27.8834 13.85C28.2833 13.7833 28.6833 13.85 28.7167 14.1C28.7091 14.265 28.6373 14.4205 28.5167 14.5333Z" fill="#ED46F7"/>
<path d="M28.3333 8.63333C29.4313 9.85427 30.2151 11.3245 30.6167 12.9167C30.6255 12.9998 30.6255 13.0836 30.6167 13.1667C30.6222 13.759 30.5719 14.3504 30.4667 14.9333C30.3876 15.4076 30.3376 15.8863 30.3167 16.3667C30.3133 16.9244 30.3523 17.4815 30.4333 18.0333C30.77 19.5626 30.5576 21.1616 29.8333 22.55L29.95 22.6833C33.65 16.8667 34.95 10.1167 33.7667 8.63333C33.0087 7.68038 32.0419 6.91428 30.9409 6.39413C29.8399 5.87398 28.6342 5.61369 27.4167 5.63333C26.504 5.62059 25.5928 5.71004 24.7 5.9C26.0999 6.5286 27.3413 7.46254 28.3333 8.63333Z" fill="#ED46F7"/>
<path d="M36.0834 23.8333C35.9667 23.5 35.4667 22.4167 33.6334 22.8C33.0845 22.9168 32.5272 22.9893 31.9667 23.0167C33.4713 20.4721 34.6262 17.7364 35.4 14.8833C36.0167 12.4667 36.5 9.23335 35.2167 7.58335C34.2741 6.38767 33.0672 5.42677 31.6907 4.77612C30.3142 4.12546 28.8056 3.80276 27.2834 3.83335C25.8954 3.82445 24.5138 4.02102 23.1834 4.41668C22.3851 4.27637 21.5771 4.19836 20.7667 4.18335C19.3321 4.15386 17.916 4.51078 16.6667 5.21668C15.703 4.89909 14.7169 4.65397 13.7167 4.48335C12.5283 4.18034 11.2907 4.1216 10.0789 4.31067C8.86715 4.49974 7.70632 4.9327 6.66669 5.58335C4.60002 7.03335 3.65002 9.56668 3.81669 13.1167C4.13486 15.7563 4.69272 18.3615 5.48336 20.9C5.95361 22.4882 6.57303 24.0284 7.33336 25.5C7.87515 26.8552 8.92036 27.9482 10.25 28.55C10.7319 28.707 11.247 28.7326 11.7421 28.6242C12.2372 28.5158 12.6944 28.2773 13.0667 27.9333C13.5128 28.4187 14.0928 28.7609 14.7334 28.9167C16.0289 29.2736 17.4061 29.1916 18.65 28.6833V30.0333C18.636 31.3623 18.81 32.6865 19.1667 33.9667C19.1714 34.0388 19.1714 34.1112 19.1667 34.1833C19.3889 34.9575 19.7949 35.6665 20.35 36.25C21.0213 36.8781 21.9146 37.2138 22.8334 37.1833C23.2261 37.1849 23.6177 37.1401 24 37.05C24.7244 36.9618 25.4237 36.7289 26.0564 36.3653C26.6891 36.0017 27.2424 35.5148 27.6834 34.9333C28.8122 32.9004 29.3383 30.5879 29.2 28.2667V27.8333H29.4834C30.8505 27.928 32.2208 27.6997 33.4834 27.1667C34.2334 26.7833 36.6667 25.5 36.0834 23.8333ZM33.0667 26.2833C32.1135 26.6672 31.0942 26.8597 30.0667 26.85C29.6219 26.8619 29.1779 26.8057 28.75 26.6833C28.5834 28.25 28.2167 31.1667 28 32.3833C27.936 33.365 27.5227 34.2912 26.8348 34.9944C26.1469 35.6975 25.23 36.1311 24.25 36.2167C23.8883 36.2932 23.5197 36.3323 23.15 36.3333C22.4244 36.3164 21.7241 36.0631 21.1556 35.6119C20.587 35.1607 20.1813 34.5362 20 33.8333C19.5703 31.6051 19.4136 29.3328 19.5334 27.0667C18.722 27.8 17.66 28.1938 16.5667 28.1667C16.0376 28.1578 15.5116 28.0851 15 27.95C14.85 27.95 13.55 27.5667 13.5667 26.7333C13.5834 25.9 14.6667 25.75 15.0667 25.6667C16.5 25.3667 16.6 25.25 17.05 24.6833C17.1482 24.5443 17.2539 24.4108 17.3667 24.2833C16.7201 24.2591 16.0875 24.0881 15.5167 23.7833C15.1334 24.2 14.0834 25.3333 12.95 26.6833C12.744 26.9897 12.4697 27.244 12.1487 27.4262C11.8276 27.6084 11.4686 27.7136 11.1 27.7333C10.9066 27.7612 10.7101 27.7612 10.5167 27.7333C9.05002 27.1667 7.66669 24.75 6.40002 20.5C5.6136 18.0399 5.05569 15.5126 4.73336 12.95C4.56669 9.75001 5.40002 7.48335 7.18336 6.28335C10.3834 4.01668 15.5167 5.76668 16.6834 6.18335C17.8704 5.39717 19.278 5.01169 20.7 5.08335C21.4874 5.08417 22.2714 5.18498 23.0334 5.38335C24.3745 4.92693 25.7834 4.7015 27.2 4.71668C28.576 4.67885 29.9421 4.9601 31.1912 5.5384C32.4403 6.1167 33.5386 6.97635 34.4 8.05002C35.55 9.51668 34.7834 13.05 34.4 14.5333C33.5449 17.7319 32.1892 20.775 30.3834 23.55C30.65 23.7333 31.4667 24.0667 33.7167 23.55C34.4834 23.3833 34.9334 23.55 35.0834 23.9667C35.45 24.8833 33.9167 25.85 33.0667 26.25V26.2833Z" fill="#ED46F7"/>
<path d="M29.05 23.15C28.6253 22.6484 28.2771 22.0868 28.0167 21.4833C28.0167 21.3667 27.8167 21.0833 27.6333 20.7667C26.6667 19.1 24.65 15.4 25.9667 13.5333C26.4099 13.062 26.972 12.7188 27.5938 12.5399C28.2156 12.361 28.8741 12.353 29.5 12.5167C29.0716 11.3345 28.4336 10.2392 27.6167 9.28332C26.7838 8.2572 25.7354 7.42673 24.5459 6.8507C23.3564 6.27468 22.0549 5.96718 20.7333 5.94999C19.9535 5.90083 19.172 6.01641 18.4398 6.28921C17.7076 6.562 17.0409 6.9859 16.4833 7.53332C15.0643 9.20507 14.2536 11.3083 14.1833 13.5L14.4333 13.3667C15.1263 12.9929 15.8844 12.7553 16.6667 12.6667C16.9904 12.5917 17.3261 12.5843 17.6529 12.6449C17.9796 12.7055 18.2903 12.8329 18.5656 13.019C18.8409 13.2051 19.0749 13.446 19.2528 13.7267C19.4308 14.0073 19.549 14.3216 19.6 14.65C20.2852 16.904 20.1131 19.3318 19.1167 21.4667C19.0083 21.677 18.9137 21.8941 18.8333 22.1167V22.3C18.6667 22.75 18.5167 23.1667 18.4167 23.5167C18.7378 23.4555 19.0699 23.4963 19.3667 23.6333C19.6174 23.7526 19.8394 23.9246 20.0177 24.1374C20.1961 24.3502 20.3264 24.5989 20.4 24.8667V25.1333C20.4081 25.183 20.4081 25.2337 20.4 25.2833C20.2205 28.0107 20.3435 30.7496 20.7667 33.45C20.8417 33.8027 20.9922 34.135 21.2078 34.4241C21.4234 34.7132 21.6989 34.9523 22.0156 35.1249C22.3322 35.2974 22.6825 35.3995 23.0423 35.4239C23.4021 35.4484 23.7629 35.3948 24.1 35.2667C24.8936 35.2131 25.6389 34.866 26.1904 34.2929C26.742 33.7197 27.0603 32.9617 27.0833 32.1667C27.3333 30.7 27.8333 26.5833 27.9 25.7C27.9 23.9333 28.7667 23.5833 29.3 23.4333L29.05 23.15Z" fill="#ED46F7"/>
<path d="M30 24.3833L29.8667 24.2833H29.6667C29.2333 24.4 28.8333 24.5167 28.8833 25.6167C29.3752 25.8118 29.9081 25.8805 30.4333 25.8167C31.2214 25.7835 31.9986 25.6202 32.7333 25.3333C33.2153 25.1159 33.6597 24.8233 34.05 24.4667C32.7341 24.928 31.2958 24.8984 30 24.3833Z" fill="#ED46F7"/>
</svg>
