<svg width="361" height="290" viewBox="0 0 361 290" fill="none" xmlns="http://www.w3.org/2000/svg">
<rect width="361" height="290" fill="url(#paint0_radial_61_144)"/>
<g clip-path="url(#clip0_61_144)">
<path d="M56.4264 245.193H304.574V250.39C304.574 251.685 304.059 252.927 303.144 253.842C302.228 254.758 300.986 255.272 299.691 255.272H61.2984C60.0036 255.272 58.7618 254.758 57.8462 253.842C56.9306 252.927 56.4163 251.685 56.4163 250.39V245.193H56.4264Z" fill="#D1CBD4"/>
<path d="M300.625 249.527H60.3747C59.7506 249.524 59.1363 249.372 58.5825 249.084C58.0287 248.796 57.5512 248.381 57.1893 247.872C56.8275 247.364 56.5917 246.777 56.5014 246.159C56.4111 245.541 56.4689 244.911 56.67 244.32L76.6655 185.187C77.5383 182.622 79.1917 180.394 81.3942 178.816C83.5966 177.238 86.2376 176.388 88.947 176.386H272.053C274.762 176.388 277.403 177.238 279.606 178.816C281.808 180.394 283.462 182.622 284.334 185.187L304.33 244.32C304.531 244.911 304.589 245.541 304.499 246.159C304.408 246.777 304.172 247.364 303.811 247.872C303.449 248.381 302.971 248.796 302.417 249.084C301.864 249.372 301.249 249.524 300.625 249.527Z" fill="#2C282C"/>
<path d="M300.625 250.045H60.3747C59.6748 250.042 58.9854 249.874 58.3632 249.553C57.741 249.233 57.2038 248.769 56.7957 248.2C56.3875 247.631 56.12 246.974 56.0153 246.282C55.9105 245.59 55.9714 244.883 56.1929 244.219L76.229 185.085C77.1258 182.423 78.8356 180.109 81.1173 178.47C83.3991 176.831 86.1377 175.95 88.947 175.95H272.053C274.862 175.95 277.601 176.831 279.883 178.47C282.164 180.109 283.874 182.423 284.771 185.085L304.807 244.209C305.029 244.873 305.089 245.58 304.985 246.272C304.88 246.964 304.612 247.621 304.204 248.19C303.796 248.759 303.259 249.222 302.637 249.543C302.015 249.864 301.325 250.032 300.625 250.035V250.045ZM88.947 176.843C86.3326 176.845 83.7844 177.665 81.66 179.188C79.5355 180.712 77.9416 182.863 77.1019 185.339L57.076 244.463C56.9046 244.985 56.8592 245.54 56.9435 246.083C57.0279 246.626 57.2396 247.141 57.5614 247.587C57.8831 248.032 58.3058 248.395 58.7948 248.646C59.2838 248.897 59.8252 249.029 60.3747 249.03H300.625C301.178 249.03 301.724 248.899 302.216 248.646C302.708 248.394 303.133 248.027 303.455 247.578C303.778 247.129 303.988 246.609 304.07 246.062C304.151 245.515 304.101 244.956 303.924 244.432L283.898 185.308C283.058 182.832 281.464 180.682 279.34 179.158C277.216 177.634 274.667 176.814 272.053 176.813L88.947 176.843Z" fill="white" fill-opacity="0.76"/>
<path d="M277.94 214.825H83.466C82.9592 214.825 82.4592 214.708 82.0061 214.481C81.5529 214.254 81.1592 213.924 80.8564 213.517C80.5535 213.111 80.35 212.639 80.2621 212.14C80.1741 211.641 80.2042 211.128 80.35 210.643L87.455 186.648C87.6771 185.908 88.1315 185.258 88.7511 184.796C89.3707 184.333 90.1227 184.082 90.8958 184.08H269.627C270.492 184.086 271.333 184.367 272.027 184.884C272.721 185.401 273.231 186.125 273.484 186.953L280.66 211.13C280.788 211.556 280.814 212.006 280.738 212.444C280.662 212.883 280.485 213.297 280.221 213.655C279.957 214.014 279.614 214.306 279.218 214.509C278.822 214.711 278.385 214.82 277.94 214.825ZM90.9263 185.085C90.371 185.085 89.8305 185.264 89.3845 185.595C88.9385 185.925 88.6108 186.391 88.4496 186.922L81.3446 210.927C81.2472 211.26 81.2285 211.612 81.2901 211.954C81.3516 212.296 81.4917 212.619 81.6994 212.897C81.907 213.176 82.1765 213.402 82.4866 213.559C82.7967 213.715 83.1389 213.798 83.4863 213.799H277.94C278.23 213.799 278.516 213.73 278.775 213.6C279.034 213.47 279.259 213.281 279.432 213.048C279.605 212.816 279.722 212.546 279.773 212.261C279.824 211.976 279.808 211.682 279.726 211.404L272.54 187.227C272.349 186.61 271.966 186.071 271.448 185.686C270.93 185.301 270.303 185.09 269.658 185.085H90.9263Z" fill="#D1D3D4"/>
<path d="M211.204 241.539H149.796C149.28 241.542 148.769 241.428 148.303 241.204C147.837 240.981 147.428 240.655 147.107 240.25C146.781 239.849 146.55 239.38 146.43 238.878C146.311 238.375 146.306 237.852 146.416 237.347L149.35 224C149.617 222.827 150.273 221.779 151.211 221.026C152.148 220.272 153.313 219.858 154.516 219.849H206.484C207.687 219.858 208.852 220.272 209.789 221.026C210.727 221.779 211.383 222.827 211.65 224L214.584 237.347C214.694 237.852 214.689 238.375 214.57 238.878C214.45 239.38 214.219 239.849 213.893 240.25C213.572 240.655 213.163 240.981 212.697 241.204C212.231 241.428 211.72 241.542 211.204 241.539ZM154.516 220.864C153.543 220.868 152.6 221.203 151.842 221.813C151.084 222.424 150.556 223.274 150.344 224.223L147.411 237.561C147.332 237.917 147.334 238.287 147.417 238.643C147.5 238.999 147.662 239.331 147.891 239.616C148.12 239.9 148.411 240.13 148.74 240.287C149.07 240.444 149.431 240.525 149.796 240.524H211.204C211.569 240.525 211.93 240.444 212.26 240.287C212.589 240.13 212.88 239.9 213.109 239.616C213.338 239.331 213.5 238.999 213.583 238.643C213.666 238.287 213.668 237.917 213.589 237.561L210.656 224.223C210.444 223.274 209.916 222.424 209.158 221.813C208.4 221.203 207.457 220.868 206.484 220.864H154.516Z" fill="#D1D3D4"/>
<path d="M274.824 48.8517H86.176C82.5267 48.8517 79.5684 51.8101 79.5684 55.4594V169.779C79.5684 173.428 82.5267 176.386 86.176 176.386H274.824C278.473 176.386 281.432 173.428 281.432 169.779V55.4594C281.432 51.8101 278.473 48.8517 274.824 48.8517Z" fill="white" fill-opacity="0.76"/>
<path d="M274.824 176.894H86.176C84.2917 176.894 82.4845 176.145 81.1521 174.813C79.8196 173.481 79.071 171.673 79.071 169.789V55.4594C79.071 53.575 79.8196 51.7678 81.1521 50.4354C82.4845 49.1029 84.2917 48.3544 86.176 48.3544H274.824C276.708 48.3544 278.516 49.1029 279.848 50.4354C281.18 51.7678 281.929 53.575 281.929 55.4594V169.779C281.93 170.713 281.747 171.638 281.391 172.501C281.035 173.364 280.511 174.149 279.852 174.809C279.192 175.47 278.408 175.994 277.545 176.352C276.683 176.71 275.758 176.894 274.824 176.894ZM86.176 49.3592C84.5609 49.3592 83.0119 50.0008 81.8698 51.1429C80.7277 52.285 80.086 53.834 80.086 55.4492V169.779C80.086 171.394 80.7277 172.943 81.8698 174.085C83.0119 175.227 84.5609 175.869 86.176 175.869H274.824C276.439 175.869 277.988 175.227 279.13 174.085C280.272 172.943 280.914 171.394 280.914 169.779V55.4594C280.914 53.8442 280.272 52.2952 279.13 51.1531C277.988 50.011 276.439 49.3694 274.824 49.3694L86.176 49.3592Z" fill="white" fill-opacity="0.76"/>
<path d="M271.769 57.6416H89.2413V167.414H271.769V57.6416Z" fill="#2F212E"/>
<path d="M117.651 60.5344V201.873C117.651 215.535 145.787 226.7 180.5 226.7C215.213 226.7 243.349 215.596 243.349 201.904V60.5344H117.651Z" fill="url(#paint1_linear_61_144)"/>
<path d="M180.5 227.177C145.564 227.177 117.144 215.819 117.144 201.873V60.5344C117.144 60.3998 117.197 60.2707 117.292 60.1755C117.388 60.0803 117.517 60.0269 117.651 60.0269H243.349C243.483 60.0269 243.612 60.0803 243.708 60.1755C243.803 60.2707 243.856 60.3998 243.856 60.5344V201.873C243.856 215.819 215.436 227.177 180.5 227.177ZM118.159 61.0419V201.873C118.159 215.261 146.122 226.162 180.5 226.162C214.878 226.162 242.841 215.261 242.841 201.873V61.0419H118.159Z" fill="white" fill-opacity="0.76"/>
<path d="M180.5 85.3308C215.21 85.3308 243.349 74.2291 243.349 60.5344C243.349 46.8397 215.21 35.7379 180.5 35.7379C145.79 35.7379 117.651 46.8397 117.651 60.5344C117.651 74.2291 145.79 85.3308 180.5 85.3308Z" fill="url(#paint2_linear_61_144)"/>
<path d="M180.5 85.8383C145.564 85.8383 117.144 74.4805 117.144 60.5344C117.144 46.5883 145.564 35.2203 180.5 35.2203C215.436 35.2203 243.856 46.5781 243.856 60.5344C243.856 74.4906 215.436 85.8383 180.5 85.8383ZM180.5 36.2353C146.122 36.2353 118.159 47.1364 118.159 60.5344C118.159 73.9324 146.122 84.8233 180.5 84.8233C214.878 84.8233 242.841 73.9222 242.841 60.5344C242.841 47.1465 214.878 36.2353 180.5 36.2353Z" fill="white" fill-opacity="0.76"/>
<path d="M180.5 128.742C145.564 128.742 117.144 117.395 117.144 103.438C117.144 103.304 117.197 103.175 117.292 103.08C117.388 102.984 117.517 102.931 117.651 102.931C117.786 102.931 117.915 102.984 118.01 103.08C118.105 103.175 118.159 103.304 118.159 103.438C118.159 116.836 146.122 127.727 180.5 127.727C214.878 127.727 242.841 116.836 242.841 103.438C242.841 103.304 242.895 103.175 242.99 103.08C243.085 102.984 243.214 102.931 243.349 102.931C243.483 102.931 243.612 102.984 243.708 103.08C243.803 103.175 243.856 103.304 243.856 103.438C243.856 117.395 215.436 128.742 180.5 128.742Z" fill="white" fill-opacity="0.76"/>
<path d="M180.5 177.371C145.564 177.371 117.144 166.013 117.144 152.057C117.144 151.922 117.197 151.793 117.292 151.698C117.388 151.603 117.517 151.549 117.651 151.549C117.785 151.552 117.913 151.606 118.007 151.701C118.102 151.796 118.156 151.923 118.159 152.057C118.159 165.455 146.122 176.356 180.5 176.356C214.878 176.356 242.841 165.455 242.841 152.057C242.844 151.923 242.898 151.796 242.993 151.701C243.087 151.606 243.215 151.552 243.349 151.549C243.483 151.549 243.612 151.603 243.708 151.698C243.803 151.793 243.856 151.922 243.856 152.057C243.856 166.013 215.436 177.371 180.5 177.371Z" fill="white" fill-opacity="0.76"/>
<path d="M133.81 85.8383H133.637C126.675 83.3719 123.63 79.6062 123.487 79.4438C123.439 79.3927 123.402 79.3321 123.378 79.266C123.355 79.1998 123.345 79.1294 123.35 79.0593C123.355 78.9892 123.375 78.9209 123.408 78.8587C123.44 78.7966 123.486 78.7419 123.541 78.6982C123.596 78.6544 123.659 78.6226 123.727 78.6047C123.795 78.5868 123.866 78.5832 123.935 78.5941C124.005 78.6051 124.071 78.6303 124.13 78.6682C124.19 78.7062 124.24 78.756 124.279 78.8145C124.279 78.8145 127.324 82.5193 133.962 84.9045C134.097 84.9274 134.217 85.0028 134.296 85.1142C134.375 85.2255 134.406 85.3637 134.383 85.4983C134.361 85.6329 134.285 85.7529 134.174 85.8319C134.062 85.9109 133.924 85.9424 133.79 85.9195L133.81 85.8383Z" fill="white" fill-opacity="0.76"/>
<path d="M138.885 87.3202H138.773L136.49 86.8432C136.355 86.8162 136.237 86.737 136.16 86.6228C136.084 86.5085 136.057 86.3688 136.084 86.2342C136.111 86.0996 136.19 85.9812 136.304 85.905C136.418 85.8289 136.558 85.8012 136.693 85.8282L138.987 86.3052C139.052 86.3196 139.114 86.3468 139.169 86.3853C139.224 86.4238 139.27 86.4727 139.306 86.5293C139.342 86.586 139.366 86.6491 139.378 86.7152C139.389 86.7812 139.387 86.8489 139.372 86.9142C139.353 87.0289 139.293 87.1329 139.204 87.2073C139.114 87.2818 139.001 87.3218 138.885 87.3202Z" fill="white" fill-opacity="0.76"/>
<path d="M133.81 131.117H133.637C126.675 128.651 123.63 124.885 123.487 124.723C123.404 124.618 123.366 124.484 123.382 124.351C123.397 124.218 123.464 124.096 123.569 124.012C123.674 123.929 123.808 123.891 123.941 123.907C124.074 123.922 124.195 123.989 124.279 124.094C124.279 124.094 127.324 127.798 133.962 130.184C134.097 130.207 134.217 130.282 134.296 130.393C134.375 130.505 134.406 130.643 134.383 130.777C134.361 130.912 134.285 131.032 134.174 131.111C134.062 131.19 133.924 131.222 133.79 131.199L133.81 131.117Z" fill="white" fill-opacity="0.76"/>
<path d="M138.885 132.599H138.773L136.49 132.122C136.355 132.095 136.237 132.016 136.16 131.902C136.084 131.788 136.057 131.648 136.084 131.513C136.111 131.379 136.19 131.26 136.304 131.184C136.418 131.108 136.558 131.08 136.693 131.107L138.987 131.584C139.052 131.598 139.113 131.624 139.168 131.661C139.223 131.699 139.27 131.747 139.306 131.802C139.342 131.858 139.366 131.921 139.377 131.986C139.389 132.052 139.387 132.119 139.372 132.183C139.355 132.3 139.296 132.406 139.207 132.483C139.117 132.559 139.003 132.601 138.885 132.599Z" fill="white" fill-opacity="0.76"/>
<path d="M133.81 176.397H133.637C126.675 173.93 123.63 170.165 123.487 170.002C123.404 169.897 123.366 169.763 123.382 169.63C123.397 169.497 123.464 169.375 123.569 169.292C123.674 169.209 123.808 169.171 123.941 169.186C124.074 169.201 124.195 169.268 124.279 169.373C124.279 169.373 127.324 173.078 133.962 175.463C134.097 175.486 134.217 175.561 134.296 175.672C134.375 175.784 134.406 175.922 134.383 176.057C134.361 176.191 134.285 176.311 134.174 176.39C134.062 176.469 133.924 176.501 133.79 176.478L133.81 176.397Z" fill="white" fill-opacity="0.76"/>
<path d="M138.885 177.879H138.773L136.49 177.401C136.424 177.388 136.362 177.362 136.307 177.325C136.252 177.288 136.204 177.24 136.168 177.184C136.131 177.128 136.105 177.066 136.093 177.001C136.08 176.935 136.08 176.868 136.094 176.803C136.107 176.738 136.133 176.676 136.171 176.621C136.208 176.566 136.256 176.519 136.312 176.484C136.368 176.448 136.43 176.423 136.495 176.412C136.561 176.4 136.628 176.402 136.693 176.417L138.987 176.894C139.052 176.907 139.113 176.933 139.168 176.971C139.223 177.008 139.27 177.056 139.306 177.112C139.342 177.168 139.366 177.23 139.377 177.296C139.389 177.361 139.387 177.428 139.372 177.493C139.349 177.604 139.287 177.703 139.198 177.773C139.109 177.844 138.998 177.881 138.885 177.879Z" fill="white" fill-opacity="0.76"/>
<path d="M167.579 170.55C168.442 168.023 169.284 165.475 170.167 162.988C170.634 161.679 171.182 160.4 171.69 159.121C171.972 158.315 172.524 157.631 173.253 157.185C173.982 156.739 174.842 156.559 175.689 156.675C177.719 156.898 179.749 157.335 181.779 157.69C182.861 157.927 183.961 158.069 185.067 158.116C185.882 158.131 186.679 157.874 187.331 157.386C189.665 155.163 191.909 152.828 194.121 150.474C194.493 150.034 194.75 149.509 194.871 148.946C194.991 148.383 194.971 147.799 194.812 147.246C194.294 144.779 193.695 142.333 193.187 139.867C192.954 138.911 192.865 137.926 192.924 136.944C192.951 136.585 193.05 136.235 193.213 135.914C193.377 135.594 193.603 135.309 193.878 135.076C197.637 132.624 201.743 130.749 206.058 129.514C206.697 129.309 207.386 129.322 208.017 129.55C208.649 129.777 209.187 130.207 209.549 130.772C211.102 132.904 212.736 134.995 214.228 137.177C214.713 138.001 215.424 138.668 216.277 139.098C217.13 139.528 218.089 139.703 219.04 139.603C221.739 139.4 224.439 139.359 227.16 139.227C227.657 139.201 228.139 139.052 228.566 138.796C228.992 138.539 229.349 138.182 229.606 137.756C230.57 136.335 231.473 134.873 232.417 133.432C233.229 132.193 234.031 130.955 234.894 129.757C235.268 129.143 235.845 128.679 236.525 128.443C237.204 128.208 237.945 128.217 238.619 128.468C242.364 129.757 246.099 131.087 249.784 132.528C250.487 132.801 251.074 133.309 251.444 133.967C251.814 134.624 251.945 135.389 251.814 136.132C251.621 138.212 251.144 140.252 250.799 142.323C250.637 143.338 250.494 144.262 250.413 145.246C250.339 145.876 250.413 146.514 250.63 147.11C250.847 147.706 251.2 148.242 251.662 148.677C253.631 150.534 255.63 152.361 257.528 154.3C258.078 154.886 258.776 155.31 259.549 155.529C260.321 155.747 261.139 155.75 261.913 155.538C264.583 154.96 267.242 154.31 269.911 153.732C270.79 153.436 271.748 153.493 272.585 153.89C273.423 154.288 274.072 154.995 274.398 155.863C275.92 159.05 277.389 162.264 278.803 165.506C279.818 167.86 279.462 169.231 277.422 170.834C276.052 171.931 274.57 172.864 273.159 173.879C272.144 174.631 271.129 175.412 270.206 176.234C269.799 176.57 269.475 176.994 269.259 177.474C269.042 177.955 268.939 178.479 268.957 179.005C269.028 181.807 269.069 184.608 269.201 187.399C269.219 188.159 269.435 188.901 269.826 189.552C270.218 190.203 270.772 190.741 271.434 191.114C272.966 192.038 274.479 192.911 276.042 193.844C276.991 194.411 277.909 195.027 278.793 195.692C279.432 196.113 279.905 196.743 280.131 197.474C280.357 198.206 280.322 198.993 280.031 199.701C278.803 203.081 277.534 206.441 276.265 209.851C276.037 210.355 275.758 210.835 275.433 211.282C275.131 211.825 274.665 212.26 274.102 212.524C273.539 212.788 272.908 212.869 272.297 212.754L265.019 211.475C264.836 211.475 264.654 211.475 264.471 211.384C263.455 211.113 262.382 211.154 261.39 211.501C260.398 211.849 259.533 212.487 258.909 213.332C257.538 214.956 255.986 216.377 254.514 217.951C253.831 218.623 253.344 219.469 253.107 220.397C252.869 221.325 252.888 222.301 253.164 223.219C253.763 225.573 254.341 227.938 254.828 230.324C255.316 232.709 254.828 233.927 252.545 235.033C249.246 236.617 245.907 238.078 242.547 239.53C241.801 239.939 240.927 240.047 240.104 239.831C239.281 239.616 238.572 239.094 238.122 238.373C236.822 236.738 235.635 235.013 234.417 233.298C231.808 229.633 231.159 229.309 226.662 229.532C224.906 229.623 223.16 229.735 221.415 229.836C220.579 229.843 219.759 230.068 219.037 230.488C218.314 230.908 217.713 231.509 217.294 232.232C216.218 233.998 215.203 235.794 214.086 237.52C213.49 238.418 212.811 239.257 212.056 240.027C211.728 240.422 211.284 240.704 210.786 240.832C210.288 240.959 209.763 240.926 209.285 240.737C205.743 239.428 202.18 238.119 198.668 236.779C198.193 236.566 197.74 236.304 197.319 235.997C196.773 235.699 196.336 235.236 196.068 234.675C195.801 234.114 195.716 233.483 195.827 232.871C196.212 230.466 196.618 228.07 196.994 225.675C197.105 224.944 197.166 224.213 197.207 223.472C197.275 222.874 197.2 222.268 196.991 221.704C196.781 221.14 196.441 220.633 195.999 220.224C194.071 218.458 192.162 216.672 190.254 214.875C189.712 214.349 189.04 213.978 188.307 213.8C187.573 213.621 186.805 213.642 186.082 213.86C183.728 214.449 181.353 214.967 178.977 215.505L178.703 215.576C175.608 216.134 174.643 215.728 173.263 212.886C171.771 209.719 170.411 206.491 169.102 203.243C168.29 201.213 168.645 200.137 170.38 198.818C172.116 197.498 174.187 195.996 176.176 194.707C177.144 194.157 177.928 193.334 178.432 192.342C178.935 191.349 179.136 190.23 179.008 189.125C178.835 186.608 178.774 184.05 178.643 181.563C178.639 181.036 178.502 180.519 178.244 180.06C177.987 179.6 177.618 179.213 177.171 178.934C175.08 177.594 172.959 176.275 170.868 174.925C169.508 174.032 168.117 173.149 167.559 171.474L167.579 170.55ZM247.764 184.618C247.771 181.459 247.151 178.329 245.941 175.41C244.731 172.492 242.954 169.842 240.713 167.615C238.472 165.387 235.812 163.626 232.886 162.433C229.961 161.24 226.827 160.639 223.668 160.664C212.625 160.613 200.1 170.296 200.11 184.649C200.152 190.929 202.66 196.941 207.093 201.389C211.527 205.838 217.53 208.366 223.81 208.43C239.177 208.491 248.403 195.235 247.744 184.618H247.764Z" fill="#2C282C"/>
<path d="M210.179 241.428C209.814 241.428 209.452 241.359 209.113 241.225L206.22 240.149C203.642 239.195 201.074 238.241 198.506 237.266C198.057 237.072 197.629 236.834 197.227 236.556L197.045 236.434C196.421 236.077 195.923 235.537 195.618 234.887C195.312 234.236 195.215 233.508 195.339 232.8C195.502 231.785 195.674 230.679 195.857 229.613C196.07 228.273 196.293 226.944 196.507 225.553C196.598 224.924 196.669 224.244 196.72 223.401C196.784 222.881 196.725 222.353 196.549 221.86C196.373 221.366 196.084 220.921 195.705 220.559C194.03 219.037 192.386 217.514 190.731 215.931L189.96 215.21C189.483 214.737 188.886 214.403 188.233 214.244C187.58 214.084 186.896 214.106 186.255 214.307C184.601 214.713 182.936 215.088 181.282 215.464L179.049 215.971L178.856 216.022C175.466 216.641 174.288 216.022 172.867 213.048C171.223 209.567 169.771 206.055 168.696 203.385C167.802 201.193 168.188 199.833 170.137 198.31C172.329 196.646 174.197 195.337 175.963 194.179C176.854 193.677 177.577 192.922 178.041 192.01C178.505 191.098 178.69 190.07 178.572 189.054C178.46 187.491 178.399 185.927 178.328 184.364C178.328 183.41 178.247 182.446 178.196 181.492C178.197 181.045 178.084 180.605 177.867 180.214C177.651 179.823 177.337 179.494 176.958 179.259L174.298 177.574C173.08 176.803 171.862 176.031 170.655 175.25C169.203 174.306 167.741 173.362 167.143 171.535C167.133 171.481 167.133 171.426 167.143 171.372V170.449C167.132 170.395 167.132 170.34 167.143 170.286L167.914 168.023C168.513 166.247 169.112 164.481 169.731 162.714C170.218 161.354 170.746 160.045 171.263 158.827C171.59 157.922 172.216 157.155 173.037 156.653C173.858 156.151 174.826 155.944 175.78 156.066C177.14 156.218 178.511 156.462 179.84 156.695C180.53 156.817 181.221 156.949 181.87 157.051L182.682 157.193C183.465 157.37 184.265 157.465 185.068 157.477C185.753 157.489 186.425 157.283 186.986 156.888C189.473 154.513 191.807 152.077 193.756 149.996C194.077 149.62 194.297 149.168 194.396 148.684C194.496 148.2 194.471 147.698 194.324 147.225C194.091 146.129 193.847 145.043 193.604 143.957C193.299 142.587 192.985 141.217 192.7 139.836C192.465 138.839 192.373 137.814 192.426 136.791C192.463 136.357 192.587 135.934 192.791 135.549C192.995 135.163 193.275 134.823 193.614 134.548C197.415 132.059 201.574 130.163 205.946 128.925C206.687 128.684 207.487 128.694 208.221 128.955C208.956 129.216 209.583 129.712 210.006 130.366C210.554 131.128 211.112 131.869 211.681 132.62C212.696 133.97 213.711 135.37 214.726 136.791C215.158 137.54 215.799 138.148 216.57 138.539C217.342 138.93 218.21 139.088 219.07 138.994C220.826 138.862 222.612 138.801 224.338 138.73L227.19 138.618C227.603 138.592 228.004 138.465 228.358 138.249C228.711 138.034 229.007 137.735 229.22 137.38C229.788 136.538 230.336 135.675 230.885 134.822C231.26 134.233 231.646 133.635 232.032 133.056L232.438 132.427C233.107 131.412 233.787 130.397 234.468 129.382C234.909 128.682 235.577 128.154 236.36 127.887C237.143 127.619 237.994 127.627 238.771 127.91C243.278 129.463 246.729 130.711 249.936 131.97C250.741 132.285 251.413 132.868 251.838 133.62C252.264 134.373 252.416 135.249 252.271 136.101C252.139 137.492 251.885 138.892 251.631 140.232C251.509 140.932 251.377 141.623 251.266 142.262C251.124 143.176 250.971 144.16 250.89 145.155C250.814 145.713 250.873 146.282 251.064 146.812C251.255 147.342 251.572 147.818 251.986 148.2L253.367 149.499C254.859 150.9 256.412 152.351 257.863 153.833C258.348 154.362 258.97 154.745 259.66 154.941C260.35 155.136 261.081 155.136 261.771 154.939C263.07 154.665 264.369 154.361 265.658 154.067C266.948 153.772 268.399 153.427 269.779 153.133C270.772 152.802 271.854 152.868 272.8 153.316C273.746 153.765 274.481 154.561 274.854 155.538C276.377 158.736 277.899 161.984 279.259 165.201C280.376 167.759 279.97 169.373 277.737 171.139C276.925 171.778 276.062 172.387 275.22 172.966C274.631 173.382 274.042 173.788 273.464 174.224C272.388 175.016 271.434 175.777 270.541 176.559C270.189 176.844 269.908 177.207 269.721 177.619C269.534 178.031 269.446 178.482 269.465 178.934V180.67C269.515 182.852 269.556 185.105 269.668 187.318C269.683 187.998 269.879 188.663 270.236 189.242C270.593 189.822 271.097 190.296 271.698 190.617C272.347 191.013 273.007 191.398 273.667 191.784C274.55 192.302 275.433 192.799 276.306 193.347C277.274 193.924 278.209 194.554 279.107 195.235C279.828 195.724 280.36 196.444 280.615 197.277C280.869 198.11 280.832 199.004 280.508 199.813C279.341 203.02 278.102 206.319 276.732 209.912C276.526 210.417 276.256 210.895 275.93 211.333L275.91 211.475C275.55 212.097 275.007 212.594 274.355 212.897C273.704 213.201 272.974 213.296 272.266 213.17L267.516 212.378L264.796 211.922C264.666 211.912 264.537 211.892 264.41 211.861C263.483 211.608 262.5 211.643 261.594 211.962C260.687 212.281 259.899 212.869 259.335 213.647C258.371 214.784 257.305 215.87 256.29 216.915L254.95 218.286C254.327 218.896 253.884 219.665 253.669 220.51C253.454 221.355 253.476 222.243 253.732 223.076C254.301 225.33 254.9 227.745 255.397 230.181C255.955 232.963 255.336 234.241 252.829 235.449C249.784 236.891 246.556 238.372 242.821 239.956C241.971 240.405 240.984 240.519 240.055 240.277C239.125 240.034 238.319 239.453 237.797 238.647C236.721 237.297 235.706 235.865 234.752 234.485L234.092 233.561C231.575 230.019 231.047 229.786 226.784 230.009L223.8 230.181L221.526 230.303C220.773 230.309 220.033 230.512 219.382 230.891C218.73 231.27 218.189 231.813 217.811 232.465L216.796 234.241C216.106 235.409 215.396 236.606 214.645 237.763C214.055 238.691 213.375 239.558 212.615 240.352C212.313 240.699 211.938 240.976 211.517 241.162C211.096 241.348 210.639 241.439 210.179 241.428ZM187.392 213.19C187.996 213.186 188.595 213.301 189.154 213.53C189.713 213.758 190.221 214.094 190.65 214.52L191.411 215.241C193.066 216.794 194.71 218.286 196.385 219.859C196.884 220.318 197.268 220.888 197.506 221.523C197.744 222.157 197.829 222.839 197.755 223.513C197.726 224.268 197.651 225.02 197.532 225.766C197.329 227.106 197.105 228.436 196.882 229.775L196.364 232.952C196.272 233.468 196.345 234 196.573 234.473C196.8 234.945 197.172 235.333 197.633 235.581L197.826 235.703C198.157 235.945 198.515 236.15 198.892 236.312C201.46 237.327 204.028 238.241 206.606 239.205L209.499 240.281C209.886 240.434 210.312 240.458 210.714 240.351C211.116 240.243 211.473 240.008 211.732 239.682C212.461 238.938 213.117 238.125 213.69 237.256C214.431 236.119 215.132 234.922 215.822 233.764C216.177 233.176 216.522 232.577 216.837 231.988C217.297 231.192 217.956 230.529 218.75 230.064C219.543 229.6 220.444 229.35 221.364 229.339L223.627 229.207L226.611 229.034C231.26 228.801 232.103 229.207 234.813 233.013L235.472 233.937C236.437 235.307 237.442 236.728 238.517 238.058C238.9 238.692 239.514 239.153 240.23 239.342C240.946 239.532 241.708 239.435 242.354 239.073C246.069 237.489 249.327 236.028 252.321 234.587C254.351 233.572 254.798 232.739 254.351 230.435C253.905 228.131 253.265 225.604 252.697 223.33C252.397 222.328 252.375 221.262 252.635 220.249C252.894 219.235 253.424 218.311 254.169 217.575L255.519 216.195C256.534 215.18 257.599 214.104 258.564 212.987C259.247 212.061 260.194 211.364 261.281 210.987C262.368 210.61 263.544 210.572 264.654 210.876H264.948H265.171L267.699 211.302L272.449 212.094C272.964 212.189 273.496 212.119 273.968 211.893C274.44 211.666 274.829 211.296 275.078 210.836L275.159 210.714C275.437 210.339 275.672 209.934 275.859 209.506C277.219 205.913 278.458 202.614 279.625 199.417C279.879 198.81 279.91 198.133 279.713 197.505C279.516 196.877 279.104 196.339 278.549 195.986C277.682 195.33 276.78 194.72 275.849 194.159C274.976 193.631 274.103 193.144 273.22 192.606C272.561 192.22 271.901 191.835 271.251 191.439C270.516 191.023 269.901 190.424 269.465 189.7C269.029 188.976 268.788 188.152 268.764 187.308C268.663 185.085 268.612 182.822 268.561 180.639V178.904C268.543 178.303 268.661 177.705 268.907 177.157C269.154 176.608 269.521 176.123 269.982 175.737C270.896 174.945 271.88 174.164 272.967 173.352L274.753 172.083C275.575 171.514 276.428 170.916 277.219 170.286C279.087 168.804 279.381 167.698 278.448 165.556C277.047 162.349 275.575 159.111 274.053 155.924C273.771 155.165 273.203 154.546 272.47 154.201C271.738 153.856 270.9 153.811 270.135 154.077C268.764 154.371 267.394 154.686 266.075 155L262.177 155.883C261.319 156.118 260.414 156.113 259.559 155.87C258.703 155.627 257.931 155.154 257.325 154.503C255.874 153.031 254.341 151.58 252.849 150.189L251.469 148.89C250.95 148.406 250.553 147.806 250.31 147.139C250.067 146.473 249.984 145.758 250.068 145.053C250.149 144.038 250.302 143.023 250.444 142.09C250.565 141.379 250.687 140.679 250.819 139.978C251.063 138.659 251.317 137.278 251.448 135.918C251.546 135.295 251.432 134.656 251.125 134.104C250.818 133.553 250.335 133.119 249.753 132.873C246.526 131.635 243.085 130.397 238.588 128.813C238.017 128.598 237.388 128.589 236.812 128.79C236.235 128.99 235.746 129.386 235.432 129.91C234.731 130.925 234.051 131.94 233.402 132.955L232.986 133.584C232.6 134.173 232.224 134.761 231.849 135.35C231.291 136.213 230.743 137.075 230.174 137.918C229.873 138.409 229.457 138.82 228.962 139.115C228.467 139.411 227.908 139.581 227.332 139.613L224.47 139.725C222.754 139.796 220.978 139.857 219.243 139.989C218.203 140.096 217.155 139.904 216.221 139.434C215.288 138.965 214.508 138.238 213.975 137.339C213.021 135.939 211.945 134.548 210.93 133.208C210.361 132.457 209.803 131.706 209.245 130.945C208.939 130.47 208.483 130.112 207.949 129.928C207.415 129.744 206.835 129.744 206.301 129.93C202.028 131.134 197.965 132.986 194.253 135.421C193.832 135.81 193.571 136.342 193.522 136.913C193.481 137.845 193.57 138.777 193.786 139.684C194.071 141.054 194.375 142.425 194.69 143.744C194.933 144.84 195.177 145.926 195.41 147.022C195.59 147.655 195.609 148.322 195.465 148.964C195.322 149.606 195.02 150.201 194.588 150.697C192.629 152.788 190.285 155.244 187.778 157.629C187.036 158.208 186.12 158.516 185.179 158.502C184.309 158.487 183.442 158.389 182.591 158.208L181.799 158.066L179.708 157.71C178.409 157.477 177.059 157.233 175.73 157.081C174.991 156.979 174.239 157.138 173.605 157.531C172.972 157.924 172.495 158.526 172.258 159.233C171.751 160.431 171.243 161.73 170.746 163.07C170.127 164.826 169.528 166.592 168.929 168.358L168.188 170.54V171.301C168.696 172.743 169.934 173.534 171.233 174.346C172.532 175.158 173.689 175.93 174.907 176.691L177.567 178.386C178.081 178.712 178.506 179.162 178.804 179.693C179.102 180.225 179.262 180.822 179.272 181.431C179.323 182.385 179.363 183.349 179.404 184.314C179.465 185.867 179.536 187.43 179.637 188.983C179.782 190.184 179.57 191.402 179.029 192.485C178.488 193.567 177.64 194.467 176.592 195.073C174.836 196.209 172.999 197.509 170.827 199.133C169.264 200.32 169 201.163 169.711 202.969C170.786 205.618 172.238 209.059 173.872 212.581C175.09 215.159 175.821 215.525 178.754 214.977L181.129 214.439C182.794 214.063 184.448 213.688 186.093 213.282C186.521 213.204 186.957 213.173 187.392 213.19ZM223.851 208.978H223.8C217.364 208.941 211.204 206.357 206.667 201.793C202.129 197.229 199.582 191.054 199.582 184.618C199.579 181.419 200.214 178.252 201.45 175.302C202.686 172.351 204.497 169.676 206.778 167.434C211.217 162.923 217.23 160.304 223.556 160.126H223.648C226.875 160.094 230.076 160.703 233.066 161.919C236.056 163.134 238.774 164.931 241.063 167.206C243.352 169.481 245.166 172.189 246.4 175.171C247.634 178.153 248.264 181.35 248.251 184.577C248.606 190.333 246.171 196.585 241.725 201.305C239.437 203.748 236.667 205.692 233.591 207.012C230.515 208.333 227.198 209.002 223.851 208.978ZM223.556 161.172C217.496 161.348 211.739 163.861 207.489 168.185C204.216 171.426 201.979 175.565 201.062 180.078C200.145 184.592 200.588 189.276 202.337 193.537C204.085 197.797 207.059 201.443 210.882 204.011C214.705 206.58 219.204 207.955 223.81 207.963C227.016 207.99 230.193 207.353 233.141 206.094C236.09 204.835 238.746 202.98 240.943 200.645C245.206 196.118 247.541 190.14 247.196 184.649C247.209 181.554 246.607 178.487 245.425 175.627C244.243 172.767 242.503 170.17 240.308 167.989C238.113 165.807 235.506 164.083 232.639 162.918C229.772 161.753 226.702 161.17 223.607 161.202L223.556 161.172Z" fill="white" fill-opacity="0.76"/>
<path d="M243.603 100.241C244.029 98.9826 244.445 97.724 244.892 96.4654C245.125 95.8158 245.389 95.1763 245.653 94.5369C245.795 94.1276 246.075 93.7807 246.446 93.5565C246.817 93.3322 247.254 93.2446 247.683 93.3087C248.698 93.4204 249.713 93.6335 250.728 93.7959C251.268 93.9167 251.819 93.988 252.372 94.0091C252.779 94.024 253.178 93.8946 253.499 93.6437C254.666 92.5374 255.793 91.3701 256.889 90.1927C257.078 89.9744 257.209 89.7125 257.271 89.4308C257.333 89.149 257.324 88.8562 257.244 88.5788C256.98 87.3507 256.686 86.1225 256.432 84.8944C256.314 84.4167 256.266 83.9243 256.29 83.4328C256.323 83.0694 256.498 82.7336 256.777 82.499C258.656 81.2712 260.709 80.3336 262.867 79.7179C263.187 79.6175 263.531 79.6246 263.846 79.7383C264.162 79.8519 264.431 80.0658 264.613 80.3472C265.384 81.3622 266.207 82.4584 266.948 83.5444C267.188 83.9582 267.543 84.2934 267.97 84.5095C268.397 84.7257 268.877 84.8135 269.353 84.7625C270.703 84.661 272.053 84.6406 273.413 84.5696C273.661 84.5586 273.902 84.486 274.115 84.3584C274.327 84.2308 274.505 84.0522 274.631 83.8388C275.118 83.1283 275.575 82.3975 276.042 81.6768C276.509 80.9562 276.844 80.4385 277.28 79.8397C277.466 79.5324 277.754 79.3001 278.093 79.1833C278.433 79.0664 278.802 79.0724 279.138 79.2002C281.019 79.8363 282.88 80.513 284.72 81.2302C285.071 81.3692 285.363 81.6246 285.548 81.9536C285.733 82.2825 285.799 82.6651 285.735 83.0369C285.634 84.0519 285.4 85.0669 285.228 86.0819C285.157 86.559 285.086 87.0969 285.045 87.5435C285.007 87.8579 285.044 88.1768 285.151 88.4747C285.259 88.7725 285.434 89.0411 285.664 89.2589C286.679 90.1825 287.643 91.096 288.598 92.0603C288.871 92.3544 289.22 92.5683 289.606 92.6792C289.993 92.7901 290.402 92.7937 290.79 92.6896C292.12 92.3952 293.449 92.0704 294.789 91.7862C295.22 91.6332 295.694 91.6535 296.11 91.8429C296.527 92.0322 296.854 92.3758 297.022 92.8012C297.783 94.3846 298.524 95.9985 299.225 97.6123C299.362 97.831 299.453 98.0753 299.492 98.3303C299.532 98.5854 299.519 98.8458 299.454 99.0956C299.389 99.3455 299.275 99.5795 299.116 99.7835C298.958 99.9874 298.76 100.157 298.534 100.282C297.854 100.83 297.113 101.297 296.413 101.825C295.906 102.2 295.398 102.586 294.931 103.002C294.727 103.167 294.564 103.378 294.457 103.618C294.349 103.858 294.3 104.12 294.312 104.382C294.312 105.783 294.363 107.184 294.424 108.574C294.435 108.955 294.545 109.326 294.742 109.652C294.939 109.977 295.218 110.246 295.55 110.432C296.312 110.899 297.083 111.335 297.844 111.802C298.322 112.083 298.783 112.391 299.225 112.726C299.551 112.936 299.792 113.256 299.905 113.627C300.019 113.999 299.997 114.399 299.844 114.756C299.221 116.441 298.592 118.132 297.956 119.831C297.849 120.088 297.709 120.33 297.54 120.551C297.39 120.823 297.158 121.041 296.877 121.174C296.597 121.307 296.282 121.348 295.977 121.292L292.343 120.683H292.069C291.557 120.549 291.017 120.575 290.52 120.756C290.023 120.937 289.593 121.266 289.288 121.698C288.597 122.5 287.826 123.231 287.095 124.002C286.752 124.336 286.506 124.758 286.386 125.221C286.266 125.685 286.276 126.173 286.415 126.631C286.71 127.809 287.004 128.986 287.248 130.184C287.343 130.412 287.388 130.657 287.381 130.904C287.374 131.151 287.314 131.394 287.205 131.616C287.097 131.838 286.942 132.034 286.752 132.191C286.561 132.349 286.339 132.464 286.101 132.528C284.456 133.32 282.792 134.071 281.107 134.782C280.734 134.986 280.297 135.04 279.885 134.933C279.474 134.825 279.119 134.564 278.894 134.203C278.245 133.381 277.656 132.518 277.047 131.666C275.737 129.839 275.413 129.636 273.169 129.788L270.541 129.94C270.128 129.95 269.725 130.065 269.37 130.275C269.014 130.484 268.719 130.781 268.511 131.138C267.983 132.021 267.496 132.914 266.917 133.787C266.619 134.234 266.279 134.652 265.902 135.035C265.738 135.232 265.517 135.372 265.269 135.436C265.022 135.5 264.76 135.484 264.522 135.391C262.745 134.731 260.979 134.081 259.213 133.411C258.974 133.307 258.746 133.177 258.533 133.026C258.262 132.873 258.045 132.639 257.912 132.357C257.779 132.075 257.737 131.759 257.792 131.452C257.985 130.255 258.188 129.057 258.371 127.859C258.428 127.496 258.465 127.13 258.482 126.763C258.517 126.464 258.48 126.16 258.374 125.878C258.268 125.595 258.097 125.342 257.873 125.139C256.858 124.256 255.965 123.363 255.011 122.47C254.741 122.204 254.405 122.015 254.037 121.924C253.669 121.833 253.283 121.843 252.92 121.952C251.743 122.246 250.555 122.5 249.378 122.774H249.246C247.693 123.058 247.216 122.855 246.526 121.434C245.775 119.851 245.095 118.237 244.435 116.613C244.328 116.427 244.26 116.221 244.234 116.007C244.209 115.794 244.226 115.578 244.286 115.371C244.346 115.165 244.446 114.973 244.582 114.806C244.717 114.639 244.885 114.501 245.074 114.4C246.018 113.69 246.983 112.99 247.977 112.37C248.461 112.095 248.853 111.683 249.105 111.187C249.358 110.691 249.46 110.132 249.398 109.579C249.307 108.321 249.276 107.062 249.205 105.803C249.206 105.539 249.139 105.28 249.011 105.049C248.883 104.818 248.698 104.624 248.475 104.484L245.328 102.454C244.589 102.093 244.003 101.482 243.674 100.728L243.603 100.241ZM283.665 107.275C283.669 105.696 283.359 104.131 282.754 102.672C282.149 101.213 281.261 99.8885 280.14 98.7754C279.019 97.6623 277.689 96.7827 276.226 96.1875C274.763 95.5924 273.196 95.2935 271.617 95.3083C268.492 95.4121 265.527 96.7135 263.335 98.9429C261.143 101.172 259.893 104.159 259.843 107.285C259.858 110.429 261.111 113.441 263.329 115.669C265.548 117.897 268.554 119.162 271.698 119.191C273.271 119.212 274.832 118.918 276.289 118.327C277.747 117.736 279.072 116.859 280.187 115.75C281.301 114.64 282.183 113.318 282.78 111.863C283.378 110.408 283.678 108.848 283.665 107.275Z" fill="#2C282C"/>
<path d="M264.897 135.929C264.682 135.926 264.469 135.885 264.268 135.807L262.766 135.249L258.959 133.828C258.721 133.722 258.493 133.593 258.279 133.442L258.188 133.381C257.829 133.19 257.539 132.892 257.357 132.528C257.175 132.164 257.111 131.753 257.173 131.351L257.427 129.768C257.539 129.098 257.65 128.428 257.752 127.738C257.752 127.382 257.833 127.037 257.853 126.723C257.885 126.499 257.861 126.272 257.785 126.06C257.709 125.847 257.583 125.657 257.417 125.505L254.849 123.119L254.544 122.825C254.334 122.62 254.072 122.475 253.786 122.407C253.5 122.34 253.201 122.351 252.92 122.439L250.393 123.028L249.378 123.261H249.216C247.409 123.596 246.708 123.261 245.947 121.637C245.308 120.267 244.658 118.775 243.856 116.796C243.596 116.315 243.534 115.752 243.684 115.227C243.834 114.701 244.184 114.255 244.658 113.984C245.754 113.152 246.688 112.492 247.592 111.954C248 111.729 248.332 111.385 248.543 110.969C248.755 110.553 248.837 110.083 248.779 109.62C248.718 108.838 248.688 108.057 248.657 107.265C248.657 106.788 248.657 106.311 248.586 105.834C248.587 105.652 248.542 105.473 248.455 105.313C248.368 105.153 248.242 105.018 248.089 104.92L246.769 104.088L244.973 102.87C244.132 102.435 243.474 101.716 243.115 100.84C243.11 100.789 243.11 100.738 243.115 100.688V100.221C243.11 100.167 243.11 100.113 243.115 100.058L243.491 98.9521C243.795 98.0589 244.1 97.1657 244.415 96.2725C244.648 95.6128 244.912 94.9632 245.186 94.3136C245.367 93.8088 245.716 93.3812 246.174 93.1023C246.632 92.8234 247.172 92.71 247.703 92.7809C248.393 92.8621 249.073 92.9839 249.733 93.0956C250.078 93.1632 250.417 93.2242 250.748 93.2783L251.154 93.3493C251.531 93.4316 251.915 93.4758 252.301 93.4813C252.582 93.4917 252.859 93.4136 253.093 93.258C254.331 92.0806 255.488 90.8626 256.463 89.8273C256.592 89.6677 256.68 89.4786 256.719 89.2767C256.758 89.0749 256.747 88.8665 256.686 88.6702L256.321 87.036C256.168 86.3458 256.016 85.6658 255.874 85.006C255.743 84.4788 255.695 83.9342 255.732 83.3922C255.751 83.1361 255.824 82.887 255.947 82.6613C256.069 82.4356 256.238 82.2385 256.442 82.0828C258.362 80.823 260.464 79.8646 262.674 79.2408C263.093 79.1136 263.541 79.1249 263.953 79.273C264.364 79.4211 264.717 79.6982 264.958 80.063L265.79 81.1795C266.308 81.8697 266.805 82.5599 267.313 83.2704C267.498 83.6133 267.782 83.893 268.127 84.0738C268.473 84.2546 268.864 84.3283 269.252 84.2854C270.145 84.2143 271.028 84.1839 271.921 84.1534H273.322C273.491 84.1428 273.655 84.0898 273.799 83.9994C273.942 83.9089 274.061 83.7839 274.144 83.6358C274.428 83.2196 274.692 82.7933 274.966 82.3772L275.545 81.484L275.768 81.1389C276.103 80.6314 276.438 80.1239 276.783 79.6265C277.032 79.2294 277.41 78.9305 277.854 78.7807C278.298 78.6308 278.78 78.6392 279.219 78.8044C281.472 79.5758 283.198 80.1949 284.822 80.8344C285.276 81.0115 285.655 81.3388 285.897 81.7617C286.139 82.1846 286.229 82.6777 286.151 83.1587C286.09 83.8591 285.958 84.5696 285.837 85.2395C285.766 85.5846 285.705 85.9297 285.654 86.2545C285.568 86.7245 285.507 87.1989 285.471 87.6755C285.437 87.9128 285.461 88.1548 285.541 88.3809C285.62 88.6071 285.753 88.8107 285.928 88.9747L286.639 89.6446C287.39 90.3551 288.151 91.0554 288.882 91.7964C289.093 92.0299 289.366 92.1994 289.67 92.2855C289.973 92.3716 290.294 92.371 290.597 92.2836L292.536 91.8471C293.226 91.6847 293.906 91.5223 294.566 91.3802C295.117 91.2088 295.713 91.2515 296.234 91.4999C296.755 91.7482 297.163 92.1839 297.377 92.72C298.138 94.3237 298.879 95.9477 299.58 97.5514C299.741 97.8209 299.846 98.1196 299.891 98.4303C299.936 98.7409 299.918 99.0573 299.84 99.3613C299.762 99.6652 299.624 99.9505 299.435 100.201C299.245 100.451 299.008 100.662 298.737 100.82C298.331 101.145 297.905 101.449 297.469 101.743L296.596 102.373C296.068 102.758 295.581 103.144 295.154 103.52C295.006 103.642 294.888 103.798 294.81 103.974C294.732 104.15 294.697 104.342 294.708 104.535V105.408C294.708 106.514 294.708 107.61 294.799 108.716C294.807 109.014 294.892 109.305 295.047 109.56C295.202 109.815 295.421 110.024 295.682 110.168L296.626 110.726L297.976 111.528C298.469 111.821 298.947 112.14 299.407 112.482C299.811 112.759 300.109 113.165 300.251 113.634C300.393 114.102 300.371 114.606 300.189 115.06C299.566 116.752 298.937 118.444 298.301 120.135C298.19 120.402 298.047 120.654 297.875 120.886C297.671 121.253 297.358 121.547 296.98 121.729C296.602 121.911 296.177 121.971 295.763 121.901L292.962 121.434L292.12 121.292H291.815C291.399 121.177 290.957 121.194 290.55 121.339C290.143 121.484 289.791 121.752 289.541 122.104C289.054 122.683 288.526 123.231 287.988 123.749L287.329 124.429C287.044 124.701 286.841 125.048 286.742 125.43C286.644 125.812 286.653 126.214 286.771 126.591C287.065 127.727 287.359 128.945 287.613 130.163C287.718 130.448 287.764 130.75 287.749 131.052C287.734 131.355 287.657 131.651 287.525 131.923C287.392 132.196 287.205 132.438 286.976 132.636C286.747 132.834 286.48 132.984 286.192 133.076C284.7 133.787 283.066 134.528 281.178 135.33C280.702 135.579 280.151 135.642 279.631 135.507C279.111 135.372 278.661 135.048 278.366 134.599C277.828 133.919 277.351 133.198 276.823 132.508L276.499 132.041C275.291 130.346 275.128 130.275 273.058 130.377L271.586 130.458L270.439 130.529C270.104 130.53 269.776 130.619 269.486 130.787C269.195 130.954 268.954 131.194 268.785 131.483C268.602 131.777 268.429 132.082 268.257 132.376C267.902 132.965 267.546 133.564 267.181 134.142C266.864 134.617 266.504 135.062 266.105 135.472C265.774 135.769 265.343 135.932 264.897 135.929ZM253.489 121.302C254.161 121.299 254.807 121.561 255.285 122.033L255.59 122.328L258.147 124.703C258.426 124.957 258.641 125.273 258.775 125.626C258.909 125.978 258.959 126.358 258.919 126.733C258.902 127.12 258.865 127.506 258.807 127.89C258.706 128.56 258.594 129.23 258.482 129.92L258.219 131.503C258.194 131.706 258.232 131.911 258.326 132.092C258.42 132.273 258.567 132.422 258.746 132.518L258.838 132.579C258.989 132.689 259.152 132.781 259.325 132.853L263.121 134.274L264.623 134.832C264.77 134.893 264.932 134.903 265.085 134.861C265.237 134.818 265.371 134.726 265.466 134.599C265.82 134.238 266.14 133.843 266.42 133.422C266.785 132.863 267.13 132.275 267.435 131.696C267.607 131.392 267.79 131.097 267.973 130.793C268.225 130.36 268.584 130 269.016 129.748C269.449 129.495 269.939 129.359 270.439 129.351L271.576 129.28L273.058 129.199C275.484 129.077 275.971 129.311 277.382 131.29L277.707 131.757C278.194 132.437 278.722 133.147 279.209 133.787C279.286 133.923 279.39 134.041 279.514 134.136C279.638 134.231 279.78 134.301 279.931 134.34C280.083 134.38 280.24 134.389 280.395 134.367C280.55 134.346 280.698 134.293 280.833 134.213C282.7 133.411 284.324 132.681 285.806 131.97C286.73 131.523 286.882 131.229 286.669 130.184C286.456 129.138 286.131 127.778 285.847 126.662C285.684 126.118 285.673 125.541 285.814 124.992C285.956 124.443 286.244 123.943 286.649 123.546L287.319 122.855C287.826 122.348 288.334 121.84 288.821 121.262C289.197 120.759 289.716 120.382 290.31 120.179C290.904 119.976 291.545 119.957 292.15 120.125H292.272H292.394L293.226 120.257L296.027 120.724C296.237 120.76 296.452 120.73 296.644 120.637C296.835 120.544 296.992 120.393 297.093 120.206C297.235 120.018 297.355 119.814 297.448 119.597C298.088 117.912 298.717 116.238 299.336 114.522C299.445 114.269 299.459 113.984 299.375 113.721C299.291 113.459 299.115 113.235 298.879 113.091C298.452 112.77 298.008 112.472 297.55 112.198L296.22 111.406L295.256 110.838C294.852 110.611 294.513 110.283 294.273 109.886C294.033 109.49 293.9 109.038 293.886 108.574C293.835 107.458 293.815 106.351 293.794 105.235V104.362C293.781 104.025 293.845 103.689 293.982 103.381C294.12 103.073 294.326 102.801 294.586 102.586C295.053 102.18 295.55 101.784 296.098 101.378L296.992 100.739C297.408 100.454 297.824 100.17 298.21 99.8555C298.385 99.7642 298.539 99.6373 298.663 99.483C298.786 99.3287 298.876 99.1503 298.927 98.9592C298.977 98.7682 298.987 98.5687 298.957 98.3735C298.926 98.1782 298.855 97.9916 298.747 97.8255C298.057 96.2319 297.316 94.6181 296.555 93.0245C296.498 92.8617 296.41 92.7119 296.294 92.5836C296.179 92.4554 296.039 92.3515 295.884 92.2778C295.728 92.2041 295.559 92.1622 295.386 92.1544C295.214 92.1467 295.042 92.1734 294.88 92.2328L292.85 92.6997L290.891 93.1362C290.421 93.2632 289.925 93.2594 289.456 93.1252C288.987 92.9911 288.564 92.7317 288.232 92.3749C287.522 91.6543 286.77 90.9539 286.019 90.2434L285.319 89.5837C285.031 89.3165 284.81 88.9851 284.674 88.6165C284.539 88.2479 284.492 87.8525 284.537 87.4623C284.537 86.9548 284.649 86.4473 284.73 85.9601L284.913 84.9451C285.035 84.2955 285.167 83.6155 285.228 82.9151C285.276 82.6552 285.234 82.3865 285.108 82.1538C284.983 81.9211 284.781 81.7385 284.537 81.6362C282.934 81.0171 281.218 80.3979 278.975 79.6062C278.742 79.508 278.481 79.5004 278.242 79.5849C278.004 79.6694 277.806 79.8399 277.686 80.063C277.341 80.5502 277.016 81.078 276.671 81.5449L276.448 81.8798L275.869 82.773C275.595 83.1993 275.321 83.6256 275.037 84.0519C274.865 84.329 274.628 84.5604 274.347 84.7264C274.066 84.8925 273.749 84.9884 273.423 85.006L272.002 85.0669C271.129 85.0669 270.256 85.1278 269.384 85.1989C268.821 85.2495 268.255 85.1424 267.749 84.8896C267.244 84.6369 266.819 84.2484 266.521 83.7677C266.044 83.0674 265.506 82.3873 265.029 81.7377C264.745 81.3622 264.461 80.9866 264.187 80.6009C264.066 80.4041 263.881 80.2546 263.663 80.177C263.445 80.0995 263.207 80.0987 262.989 80.1746C260.876 80.7687 258.867 81.6826 257.031 82.8847C256.895 83.0414 256.81 83.2363 256.787 83.4429C256.77 83.8834 256.815 84.3241 256.919 84.7523C257.051 85.4323 257.214 86.1124 257.366 86.7823C257.518 87.4522 257.61 87.8785 257.721 88.4266C257.818 88.7771 257.826 89.1462 257.744 89.5006C257.663 89.8549 257.494 90.1835 257.254 90.4566C256.239 91.4716 255.103 92.7403 253.844 93.938C253.424 94.2662 252.905 94.4417 252.372 94.4354C251.918 94.4316 251.466 94.3806 251.022 94.2831L250.637 94.2222L249.622 94.0395C248.972 93.9177 248.312 93.8061 247.652 93.735C247.339 93.6905 247.02 93.7576 246.751 93.9246C246.482 94.0916 246.28 94.3478 246.181 94.6485C245.917 95.2778 245.663 95.9071 245.43 96.5466C245.115 97.4398 244.821 98.3228 244.516 99.216L244.171 100.231V100.515C244.474 101.114 244.967 101.596 245.572 101.885L247.419 103.063L248.738 103.905C249.031 104.086 249.274 104.338 249.442 104.638C249.611 104.938 249.701 105.276 249.703 105.621C249.703 106.108 249.753 106.636 249.774 107.062C249.774 107.844 249.835 108.615 249.885 109.396C249.959 110.039 249.842 110.69 249.55 111.267C249.258 111.844 248.803 112.323 248.241 112.644C247.358 113.213 246.455 113.852 245.379 114.674C244.678 115.202 244.587 115.517 244.902 116.298C245.693 118.257 246.333 119.729 246.932 121.089C247.49 122.267 247.744 122.388 249.104 122.104L249.327 122.571L249.216 122.074L250.231 121.84C251.063 121.658 251.905 121.465 252.738 121.262C252.989 121.243 253.241 121.256 253.489 121.302ZM271.759 119.699C268.517 119.623 265.433 118.287 263.161 115.973C260.89 113.66 259.61 110.551 259.594 107.309C259.578 104.067 260.827 100.946 263.076 98.6102C265.325 96.2745 268.396 94.9078 271.637 94.8008C273.283 94.7819 274.916 95.0908 276.441 95.7095C277.966 96.3282 279.353 97.2443 280.521 98.4044C281.689 99.5645 282.614 100.945 283.242 102.467C283.871 103.988 284.19 105.619 284.182 107.265C284.226 108.84 283.953 110.407 283.382 111.875C282.81 113.342 281.95 114.681 280.853 115.811C279.682 117.053 278.267 118.039 276.696 118.708C275.126 119.377 273.435 119.714 271.728 119.699H271.759ZM271.606 95.8158C268.643 95.902 265.828 97.1314 263.75 99.2465C262.684 100.296 261.837 101.548 261.259 102.928C260.68 104.308 260.382 105.789 260.381 107.285C260.383 110.299 261.578 113.189 263.704 115.324C265.83 117.46 268.715 118.668 271.728 118.684C273.295 118.697 274.847 118.386 276.288 117.771C277.729 117.157 279.027 116.251 280.102 115.111C281.107 114.08 281.894 112.858 282.417 111.517C282.94 110.177 283.188 108.744 283.147 107.306C283.154 105.792 282.859 104.292 282.281 102.893C281.702 101.495 280.851 100.225 279.777 99.1585C278.703 98.092 277.427 97.2499 276.025 96.6812C274.622 96.1126 273.12 95.8287 271.606 95.8462V95.8158Z" fill="white" fill-opacity="0.76"/>
<path d="M62.1814 118.339C65.343 121.771 69.5113 124.113 74.0874 125.027C77.3238 125.685 80.3965 126.982 83.1257 128.841C85.855 130.701 88.186 133.086 89.9823 135.858C94.7426 143.247 99.2695 150.778 103.898 158.248L118.423 181.664C122.34 187.998 126.255 194.328 130.166 200.655C133.468 206.008 136.781 211.346 140.103 216.672C141.261 218.464 142.945 219.854 144.923 220.652C146.902 221.45 149.079 221.616 151.156 221.128C153.221 220.709 155.096 219.639 156.507 218.075C157.917 216.511 158.788 214.536 158.992 212.439C159.22 210.637 158.826 208.811 157.876 207.263C155.399 203.517 152.933 199.772 150.405 196.098C144.133 186.902 137.843 177.716 131.536 168.541C126.935 161.835 122.344 155.115 117.763 148.383C114.129 143.084 110.499 137.786 106.872 132.488C105.31 130.401 103.876 128.221 102.578 125.961C99.8126 120.703 99.0895 114.608 100.548 108.848C103.593 95.7346 93.5855 83.382 79.7612 82.773C79.4587 82.705 79.1427 82.7285 78.8535 82.8405C78.5643 82.9526 78.315 83.1481 78.1373 83.4023C77.7617 84.0215 78.0763 84.5391 78.4214 85.0669L85.6381 96.1406C85.9081 96.4992 86.0954 96.913 86.1868 97.3525C86.2781 97.792 86.2711 98.2462 86.1664 98.6827C86.0616 99.1191 85.8617 99.527 85.5808 99.8772C85.3 100.227 84.9452 100.511 84.5419 100.708L72.91 107.63C72.5538 107.866 72.1544 108.028 71.735 108.107C71.3156 108.187 70.8845 108.182 70.467 108.093C70.0495 108.004 69.6538 107.833 69.303 107.59C68.9522 107.347 68.6533 107.036 68.4237 106.676C67.1651 104.788 65.937 102.88 64.6987 100.972C63.4739 99.0976 62.2491 97.2165 61.0244 95.3286C60.9007 95.0592 60.7016 94.8315 60.4512 94.673C60.2008 94.5144 59.9098 94.4319 59.6135 94.4354C59.3241 94.4522 59.0472 94.5591 58.8215 94.7411C58.5958 94.9231 58.4327 95.1711 58.3549 95.4504C54.8735 103.885 56.0813 111.477 62.1814 118.339ZM144.701 214.063C144.363 213.55 144.133 212.973 144.026 212.368C143.919 211.763 143.937 211.143 144.079 210.545C144.22 209.947 144.483 209.384 144.85 208.891C145.217 208.398 145.681 207.986 146.213 207.679C147.301 206.969 148.626 206.72 149.897 206.987C151.169 207.253 152.282 208.013 152.993 209.1C153.331 209.626 153.557 210.216 153.658 210.833C153.759 211.45 153.732 212.081 153.578 212.687C153.425 213.293 153.149 213.861 152.767 214.356C152.386 214.852 151.907 215.263 151.359 215.565C150.265 216.204 148.97 216.405 147.734 216.126C146.499 215.847 145.415 215.11 144.701 214.063Z" fill="#2C282C" stroke="white" stroke-opacity="0.76" stroke-width="1.015" stroke-linecap="round" stroke-linejoin="round"/>
<path d="M92.2863 79.2002C94.9187 79.3713 97.5581 79.0005 100.041 78.1108C102.525 77.2211 104.799 75.8314 106.724 74.0276C108.649 72.2239 110.183 70.0444 111.232 67.624C112.281 65.2036 112.822 62.5937 112.822 59.9558C112.822 57.3179 112.281 54.7081 111.232 52.2877C110.183 49.8673 108.649 47.6878 106.724 45.884C104.799 44.0803 102.525 42.6906 100.041 41.8008C97.5581 40.9111 94.9187 40.5404 92.2863 40.7114V59.9964H73.0013C73.0228 65.0971 75.0641 69.9814 78.6784 73.5805C82.2927 77.1796 87.1857 79.2003 92.2863 79.2002Z" fill="#2C282C"/>
<path d="M92.2863 79.7077C87.0495 79.7023 82.0286 77.6196 78.3256 73.9166C74.6225 70.2136 72.5398 65.1927 72.5344 59.9558C72.5344 59.8212 72.5879 59.6921 72.6831 59.597C72.7783 59.5018 72.9073 59.4483 73.0419 59.4483H91.7788V40.7114C91.7788 40.5768 91.8323 40.4477 91.9275 40.3526C92.0227 40.2574 92.1517 40.2039 92.2863 40.2039C97.5249 40.2039 102.549 42.2849 106.253 45.9891C109.957 49.6933 112.038 54.7173 112.038 59.9558C112.038 65.1944 109.957 70.2183 106.253 73.9225C102.549 77.6267 97.5249 79.7077 92.2863 79.7077ZM73.5494 60.4227C73.6482 64.082 74.8168 67.6323 76.9107 70.6349C79.0046 73.6375 81.9323 75.961 85.332 77.3184C88.7317 78.6757 92.4545 79.0075 96.0407 78.2727C99.6268 77.5378 102.919 75.7686 105.511 73.1836C108.103 70.5985 109.881 67.3108 110.625 63.7267C111.369 60.1425 111.047 56.4187 109.699 53.0155C108.351 49.6122 106.035 46.6785 103.038 44.5766C100.041 42.4748 96.4935 41.2969 92.8344 41.1885V59.9558C92.8344 60.0904 92.781 60.2195 92.6858 60.3147C92.5906 60.4099 92.4615 60.4633 92.3269 60.4633L73.5494 60.4227Z" fill="white" fill-opacity="0.76"/>
<path d="M68.4846 55.3274H87.7696V36.0424C82.6549 36.0424 77.7497 38.0742 74.133 41.6909C70.5164 45.3075 68.4846 50.2127 68.4846 55.3274Z" fill="#2C282C"/>
<path d="M87.729 55.8349H68.444C68.3094 55.8349 68.1803 55.7814 68.0851 55.6863C67.99 55.5911 67.9365 55.462 67.9365 55.3274C67.9392 52.7309 68.4532 50.1603 69.4493 47.7625C70.4454 45.3646 71.9041 43.1864 73.742 41.3523C75.5799 39.5182 77.7611 38.064 80.161 37.0728C82.5609 36.0816 85.1325 35.5728 87.729 35.5755C87.8636 35.5755 87.9927 35.629 88.0879 35.7242C88.183 35.8193 88.2365 35.9484 88.2365 36.083V55.368C88.2263 55.4955 88.1683 55.6143 88.0742 55.7009C87.9801 55.7875 87.8568 55.8353 87.729 55.8349ZM69.0023 54.8199H87.2215V36.5499C82.4245 36.6884 77.8629 38.6593 74.4742 42.0574C71.0856 45.4555 69.1274 50.0226 69.0023 54.8199Z" fill="white" fill-opacity="0.76"/>
<path d="M86.8764 191.236H71.3367V240.92H86.8764V191.236Z" fill="#2C282C"/>
<path d="M86.8764 241.428H71.3367C71.2021 241.428 71.0731 241.374 70.9779 241.279C70.8827 241.184 70.8292 241.055 70.8292 240.92V191.236C70.8292 191.101 70.8827 190.972 70.9779 190.877C71.0731 190.782 71.2021 190.728 71.3367 190.728H86.8764C87.011 190.728 87.1401 190.782 87.2353 190.877C87.3304 190.972 87.3839 191.101 87.3839 191.236V240.91C87.3853 240.977 87.3731 241.045 87.3482 241.107C87.3233 241.17 87.2862 241.227 87.2389 241.275C87.1916 241.324 87.1352 241.362 87.073 241.388C87.0107 241.414 86.9439 241.428 86.8764 241.428ZM71.8442 240.413H86.3689V191.743H71.895L71.8442 240.413Z" fill="white" fill-opacity="0.76"/>
<path d="M108.384 204.421H92.8446V240.92H108.384V204.421Z" fill="#2C282C"/>
<path d="M108.435 241.428H92.8446C92.71 241.428 92.5809 241.374 92.4857 241.279C92.3906 241.184 92.3371 241.055 92.3371 240.92V204.38C92.3371 204.246 92.3906 204.117 92.4857 204.021C92.5809 203.926 92.71 203.873 92.8446 203.873H108.435C108.57 203.873 108.699 203.926 108.794 204.021C108.889 204.117 108.942 204.246 108.942 204.38V240.92C108.942 241.055 108.889 241.184 108.794 241.279C108.699 241.374 108.57 241.428 108.435 241.428ZM93.4029 240.413H107.927V204.888H93.3521L93.4029 240.413Z" fill="white" fill-opacity="0.76"/>
<path d="M129.892 222.67H114.352V240.92H129.892V222.67Z" fill="#2C282C"/>
<path d="M129.892 241.428H114.352C114.218 241.428 114.089 241.374 113.994 241.279C113.898 241.184 113.845 241.055 113.845 240.92V222.64C113.845 222.505 113.898 222.376 113.994 222.281C114.089 222.186 114.218 222.133 114.352 222.133H129.892C130.027 222.133 130.156 222.186 130.251 222.281C130.346 222.376 130.4 222.505 130.4 222.64V240.91C130.401 240.978 130.389 241.045 130.364 241.107C130.339 241.17 130.302 241.227 130.255 241.275C130.207 241.324 130.151 241.362 130.089 241.388C130.026 241.414 129.96 241.428 129.892 241.428ZM114.86 240.413H129.385V223.158H114.86V240.413Z" fill="white" fill-opacity="0.76"/>
<path d="M137.708 241.428H65.6426C65.508 241.428 65.3789 241.374 65.2837 241.279C65.1886 241.184 65.1351 241.055 65.1351 240.92C65.1377 240.786 65.192 240.659 65.2866 240.564C65.3812 240.47 65.5088 240.415 65.6426 240.413H137.758C137.893 240.413 138.022 240.466 138.117 240.561C138.212 240.656 138.266 240.786 138.266 240.92C138.266 240.991 138.252 241.062 138.223 241.127C138.194 241.192 138.152 241.25 138.1 241.298C138.047 241.346 137.985 241.382 137.917 241.405C137.85 241.427 137.778 241.435 137.708 241.428Z" fill="white" fill-opacity="0.76"/>
<path d="M255.336 40.7114H214.736C213.541 40.7114 212.394 41.1862 211.549 42.0314C210.704 42.8765 210.229 44.0228 210.229 45.218V63.6098C210.228 64.2025 210.344 64.7896 210.569 65.3375C210.795 65.8855 211.127 66.3835 211.546 66.803C211.964 67.2226 212.462 67.5554 213.009 67.7825C213.556 68.0097 214.143 68.1266 214.736 68.1266H218.42V75.0184L224.023 68.1266H255.366C255.959 68.1266 256.546 68.0097 257.093 67.7825C257.641 67.5554 258.138 67.2226 258.557 66.803C258.975 66.3835 259.307 65.8855 259.533 65.3375C259.759 64.7896 259.874 64.2025 259.873 63.6098V45.218C259.873 44.6236 259.755 44.0351 259.527 43.4863C259.299 42.9376 258.964 42.4394 258.542 42.0205C258.121 41.6017 257.62 41.2704 257.07 41.0457C256.52 40.821 255.93 40.7074 255.336 40.7114Z" fill="#2C282C"/>
<path d="M218.39 75.5259C218.336 75.5356 218.281 75.5356 218.228 75.5259C218.128 75.4909 218.042 75.4265 217.981 75.3412C217.919 75.256 217.885 75.154 217.882 75.0489V68.6341H214.706C213.37 68.618 212.095 68.0763 211.156 67.1263C210.218 66.1763 209.691 64.8946 209.691 63.5591V45.218C209.707 43.8931 210.241 42.6269 211.177 41.69C212.114 40.7531 213.381 40.2197 214.706 40.2039H255.306C256.635 40.2039 257.911 40.7322 258.851 41.6725C259.791 42.6128 260.32 43.8882 260.32 45.218V63.6098C260.32 64.9453 259.793 66.227 258.855 67.177C257.916 68.127 256.641 68.6688 255.306 68.6848H224.236L218.786 75.3838C218.733 75.4339 218.671 75.4724 218.603 75.4969C218.535 75.5214 218.462 75.5312 218.39 75.5259ZM214.706 41.2189C213.65 41.2346 212.642 41.661 211.895 42.4076C211.149 43.1542 210.722 44.1623 210.706 45.218V63.6098C210.706 64.6761 211.126 65.6997 211.874 66.4594C212.622 67.219 213.639 67.6538 214.706 67.6698H218.39C218.525 67.6698 218.654 67.7233 218.749 67.8185C218.844 67.9136 218.897 68.0427 218.897 68.1773V73.638L223.597 67.8525C223.645 67.7946 223.706 67.7481 223.774 67.7165C223.843 67.6849 223.917 67.6689 223.993 67.6698H255.336C255.866 67.6699 256.391 67.5645 256.881 67.3597C257.37 67.1549 257.813 66.8549 258.186 66.4771C258.558 66.0992 258.851 65.6512 259.048 65.1589C259.246 64.6667 259.343 64.1401 259.335 63.6098V45.218C259.335 44.1574 258.914 43.1402 258.164 42.3902C257.414 41.6403 256.397 41.2189 255.336 41.2189H214.706Z" fill="white" fill-opacity="0.76"/>
<path d="M253.215 48.8416H216.827C216.692 48.8416 216.563 48.7881 216.468 48.693C216.373 48.5978 216.319 48.4687 216.319 48.3341C216.322 48.2003 216.376 48.0727 216.471 47.9781C216.565 47.8835 216.693 47.8292 216.827 47.8266H253.215C253.349 47.8266 253.478 47.8801 253.573 47.9752C253.669 48.0704 253.722 48.1995 253.722 48.3341C253.722 48.4687 253.669 48.5978 253.573 48.693C253.478 48.7881 253.349 48.8416 253.215 48.8416Z" fill="#D1D3D4"/>
<path d="M253.215 54.8199H216.827C216.693 54.8173 216.565 54.763 216.471 54.6684C216.376 54.5738 216.322 54.4462 216.319 54.3124C216.319 54.1778 216.373 54.0487 216.468 53.9536C216.563 53.8584 216.692 53.8049 216.827 53.8049H253.215C253.349 53.8049 253.478 53.8584 253.573 53.9536C253.669 54.0487 253.722 54.1778 253.722 54.3124C253.722 54.447 253.669 54.5761 253.573 54.6713C253.478 54.7665 253.349 54.8199 253.215 54.8199Z" fill="#D1D3D4"/>
<path d="M243.887 60.7881H216.827C216.692 60.7881 216.563 60.7347 216.468 60.6395C216.373 60.5443 216.319 60.4152 216.319 60.2806C216.322 60.1468 216.376 60.0193 216.471 59.9246C216.565 59.83 216.693 59.7757 216.827 59.7731H243.887C244.021 59.7757 244.148 59.83 244.243 59.9246C244.337 60.0193 244.392 60.1468 244.394 60.2806C244.394 60.4152 244.341 60.5443 244.246 60.6395C244.15 60.7347 244.021 60.7881 243.887 60.7881Z" fill="#D1D3D4"/>
</g>
<defs>
<radialGradient id="paint0_radial_61_144" cx="0" cy="0" r="1" gradientUnits="userSpaceOnUse" gradientTransform="translate(180.5 145) rotate(90) scale(145 180.5)">
<stop stop-color="#EB53E3"/>
<stop offset="1" stop-color="#141314" stop-opacity="0"/>
</radialGradient>
<linearGradient id="paint1_linear_61_144" x1="180.5" y1="60.5344" x2="180.5" y2="226.7" gradientUnits="userSpaceOnUse">
<stop stop-color="#D02EE2"/>
<stop offset="1" stop-color="#910579"/>
</linearGradient>
<linearGradient id="paint2_linear_61_144" x1="117.5" y1="60.5" x2="243.5" y2="60.5" gradientUnits="userSpaceOnUse">
<stop stop-color="#D741E8"/>
<stop offset="1" stop-color="#B015A5"/>
</linearGradient>
<clipPath id="clip0_61_144">
<rect width="250" height="221" fill="white" transform="translate(55.5 34.5)"/>
</clipPath>
</defs>
</svg>
