<svg width="243" height="153" viewBox="0 0 243 153" fill="none" xmlns="http://www.w3.org/2000/svg">
<g filter="url(#filter0_d_56_79)">
<path fill-rule="evenodd" clip-rule="evenodd" d="M118.674 16.5274C120.531 16.423 122.394 16.4611 124.245 16.6414L126.795 16.8094C127.959 17.0134 129.138 16.9414 130.245 17.1484C131.676 17.4154 133.107 17.4484 134.466 17.7304C136.566 18.1624 138.63 18.4024 140.598 18.9124C143.747 19.603 146.853 20.4796 149.898 21.5374C151.059 21.9934 152.214 22.3234 153.348 22.7764C155.148 23.4934 156.897 24.3214 158.619 25.0834L160.644 26.0584L163.776 27.7654C164.886 28.4284 165.981 29.1304 167.058 29.8084C169.292 31.2751 171.446 32.8593 173.511 34.5544C174.411 35.2714 175.2 36.1594 176.1 36.8794C176.94 37.5605 177.713 38.3211 178.407 39.1504L179.796 40.5964L182.064 43.2424C183.594 45.2074 185.103 47.2114 186.453 49.3564C187.227 50.5834 187.929 51.8614 188.667 53.1274C189.039 53.7664 189.267 54.4564 189.624 55.0774C190.485 56.5414 191.382 57.9664 192.345 59.3344C194.196 61.9654 196.245 64.3714 198.234 66.8554L201.603 70.5484L202.26 71.1874C202.802 71.8491 203.411 72.4524 204.078 72.9874L205.56 74.4124C206.901 75.4894 208.122 76.6954 209.499 77.7514C210.399 78.4354 211.269 79.1374 212.199 79.7944L213.042 80.4124L214.692 80.5234C215.755 80.6844 216.807 80.9098 217.842 81.1984C219.78 81.6667 221.555 82.6494 222.981 84.0429C224.407 85.4363 225.43 87.1888 225.942 89.1154C226.484 91.0651 226.451 93.1296 225.849 95.0614C223.611 100.275 213.636 99.0964 208.05 97.6504L205.368 96.9934C203.988 96.5794 202.602 96.2014 201.279 95.7184C200.851 95.5095 200.397 95.3582 199.929 95.2684C199.569 95.8152 199.118 96.297 198.597 96.6934C197.6 97.6374 196.506 98.474 195.333 99.1894L190.587 123.705L189.912 127.344C189.824 128.158 189.693 128.966 189.519 129.765C189.014 131.759 187.859 133.528 186.237 134.793C185.215 135.517 184.052 136.016 182.823 136.257C181.941 136.382 181.049 136.42 180.159 136.371H66.7022C63.316 136.798 59.8768 136.36 56.7062 135.096C55.1881 134.215 54.0116 132.847 53.3672 131.214C53.1651 130.563 53.0087 129.899 52.8992 129.225L52.0742 125.118L48.2102 106.041L47.2172 101.109C47.1346 100.364 46.9779 99.628 46.7492 98.9134C46.3837 98.7171 46.0433 98.4773 45.7352 98.1994C44.5366 97.3816 43.4788 96.3745 42.6032 95.2174C41.2925 95.7559 39.9524 96.2196 38.5892 96.6064C37.5752 96.9244 36.5282 97.1734 35.4572 97.4704C31.2572 98.6314 24.2552 99.7534 20.0012 97.8844C19.2633 97.5637 18.6059 97.0829 18.0767 96.4769C17.5475 95.8709 17.1596 95.1548 16.9412 94.3804C16.8419 93.9417 16.7728 93.4966 16.7342 93.0484C16.6353 92.2395 16.6585 91.4204 16.8032 90.6184C16.9524 89.5464 17.219 88.4941 17.5982 87.4804C18.3707 85.8301 19.5171 84.3826 20.9466 83.2525C22.376 82.1225 24.0491 81.3411 25.8332 80.9704C26.6982 80.7577 27.5746 80.5944 28.4582 80.4814L29.7722 80.4064L30.5222 79.8424C31.4402 79.1854 32.3042 78.4834 33.1862 77.7994C34.6592 76.6534 35.9462 75.3214 37.3862 74.1604L38.8682 72.6964C39.2103 72.389 39.5358 72.0636 39.8432 71.7214L40.8362 70.7284C41.9432 69.3574 43.2842 68.1754 44.3822 66.7894C46.3862 64.2574 48.4082 61.7554 50.2892 59.0794C51.2762 57.6784 52.1282 56.1784 53.0102 54.6724L53.8352 52.9294L55.5422 49.9474C56.7602 47.9884 58.0412 46.0954 59.4062 44.2834L61.8632 41.2804L63.9842 38.9554L64.6202 38.3374C65.0177 37.8547 65.4641 37.4144 65.9522 37.0234C66.6032 36.4984 67.1522 35.8444 67.8092 35.3164C69.2012 34.2004 70.5092 32.9524 71.9732 31.9024C76.3037 28.7437 80.9566 26.0526 85.8542 23.8744C90.3898 21.9306 95.075 20.3565 99.8642 19.1674C102.072 18.6064 104.364 18.2674 106.671 17.7784C108.675 17.3584 110.784 17.3074 112.878 16.9534L114.792 16.7854L118.674 16.5274ZM117.924 22.8874C117.565 22.9918 117.214 23.1232 116.874 23.2804C115.437 24.4676 114.488 26.1438 114.21 27.9874C114.054 28.6054 114.021 29.2714 113.91 29.9374C113.771 30.9532 113.79 31.9845 113.967 32.9944C114.42 35.5084 115.035 38.2804 117.531 38.6944C118.169 38.6369 118.78 38.4103 119.301 38.038C119.822 37.6657 120.234 37.1612 120.495 36.5764C121.421 34.7627 121.926 32.7641 121.975 30.7285C122.024 28.6929 121.615 26.6724 120.777 24.8164C120.552 24.2445 120.159 23.7541 119.65 23.4098C119.14 23.0655 118.539 22.8834 117.924 22.8874ZM139.503 25.9264L138.81 26.0194C138.319 26.1366 137.863 26.3678 137.478 26.6944C137.029 27.4051 136.812 28.238 136.857 29.0776C136.902 29.9172 137.207 30.722 137.73 31.3804C139.396 33.9918 141.865 35.9919 144.765 37.0804C145.583 37.4754 146.482 37.6742 147.39 37.6612C148.298 37.6482 149.191 37.4236 149.997 37.0054C151.566 35.7664 150.432 33.1624 149.661 31.9774C148.553 30.2504 147.058 28.8048 145.295 27.7546C143.532 26.7045 141.55 26.0786 139.503 25.9264ZM96.6452 27.3904L95.7032 27.4804C95.084 27.598 94.4759 27.7676 93.8852 27.9874C90.9941 29.108 88.5481 31.1422 86.9192 33.7804C86.1992 34.9624 85.1792 37.5334 86.6762 38.7124C87.4204 39.1202 88.251 39.3449 89.0992 39.3678C89.9475 39.3908 90.789 39.2114 91.5542 38.8444C94.8105 37.6513 97.5141 35.3022 99.1502 32.2444C100.23 29.7784 99.8102 27.3634 96.6362 27.3874L96.6452 27.3904ZM58.0472 102.09L62.8472 125.988H179.631L180.138 123.231L180.942 118.98L183.192 107.199L184.185 102.078C183.404 102.076 182.625 101.995 181.86 101.835C179.955 101.533 178.092 101.011 176.307 100.278C173.601 101.496 170.796 102.482 167.922 103.224C166.866 103.494 165.804 103.593 164.658 103.806C162.255 104.207 159.802 104.2 157.401 103.788C156.037 103.564 154.694 103.225 153.387 102.774C151.025 101.866 148.803 100.628 146.787 99.0964C146.016 98.5144 145.359 97.8034 144.612 97.2034L143.901 96.4804L139.08 98.8444C137.04 99.7444 135.015 100.68 132.891 101.526C131.129 102.194 129.325 102.746 127.491 103.176C126.417 103.446 125.247 103.575 124.059 103.776L122.466 103.869H120.813L118.824 103.887L117.081 103.755C115.743 103.581 114.416 103.331 113.106 103.005C110.921 102.377 108.772 101.625 106.671 100.755C105.135 100.101 103.647 99.3154 102.15 98.6554L97.7222 96.4804L96.6722 97.5484L95.6972 98.4304L93.7832 99.9304C91.409 101.599 88.7429 102.808 85.9232 103.494C80.7328 104.494 75.3661 104.02 70.4312 102.126L67.3352 100.926L65.8922 100.269L63.6962 101.076C61.8716 101.698 59.9623 102.036 58.0352 102.078L58.0472 102.09Z" fill="url(#paint0_linear_56_79)"/>
</g>
<defs>
<filter id="filter0_d_56_79" x="0.674072" y="0.470032" width="241.652" height="152.06" filterUnits="userSpaceOnUse" color-interpolation-filters="sRGB">
<feFlood flood-opacity="0" result="BackgroundImageFix"/>
<feColorMatrix in="SourceAlpha" type="matrix" values="0 0 0 0 0 0 0 0 0 0 0 0 0 0 0 0 0 0 127 0" result="hardAlpha"/>
<feOffset/>
<feGaussianBlur stdDeviation="8"/>
<feComposite in2="hardAlpha" operator="out"/>
<feColorMatrix type="matrix" values="0 0 0 0 0.921569 0 0 0 0 0.572549 0 0 0 0 0.105882 0 0 0 0.24 0"/>
<feBlend mode="normal" in2="BackgroundImageFix" result="effect1_dropShadow_56_79"/>
<feBlend mode="normal" in="SourceGraphic" in2="effect1_dropShadow_56_79" result="shape"/>
</filter>
<linearGradient id="paint0_linear_56_79" x1="89.6972" y1="16.5694" x2="153.402" y2="136.38" gradientUnits="userSpaceOnUse">
<stop stop-color="#EB7619"/>
<stop offset="1" stop-color="#EC9C1D"/>
</linearGradient>
</defs>
</svg>
