<svg width="49" height="48" viewBox="0 0 49 48" fill="none" xmlns="http://www.w3.org/2000/svg">
<g id="tortacms 1">
<path id="Forma 319 1" fill-rule="evenodd" clip-rule="evenodd" d="M23.9342 11.4294C24.3056 11.4085 24.6781 11.4161 25.0484 11.4522L25.5584 11.4858C25.7912 11.5266 26.027 11.5122 26.2484 11.5536C26.5346 11.607 26.8208 11.6136 27.0926 11.67C27.5126 11.7564 27.9254 11.8044 28.319 11.9064C28.9488 12.0445 29.5699 12.2198 30.179 12.4314C30.4112 12.5226 30.6422 12.5886 30.869 12.6792C31.229 12.8226 31.5788 12.9882 31.9232 13.1406L32.3282 13.3356L32.9546 13.677C33.1766 13.8096 33.3956 13.95 33.611 14.0856C34.0577 14.3789 34.4885 14.6958 34.9016 15.0348C35.0816 15.1782 35.2394 15.3558 35.4194 15.4998C35.5874 15.636 35.742 15.7881 35.8808 15.954L36.1586 16.2432L36.6122 16.7724C36.9182 17.1654 37.22 17.5662 37.49 17.9952C37.6448 18.2406 37.7852 18.4962 37.9328 18.7494C38.0072 18.8772 38.0528 19.0152 38.1242 19.1394C38.2964 19.4322 38.4758 19.7172 38.6684 19.9908C39.0386 20.517 39.4484 20.9982 39.8462 21.495L40.52 22.2336L40.6514 22.3614C40.7597 22.4937 40.8816 22.6144 41.015 22.7214L41.3114 23.0064C41.5796 23.2218 41.8238 23.463 42.0992 23.6742C42.2792 23.811 42.4532 23.9514 42.6392 24.0828L42.8078 24.2064L43.1378 24.2286C43.3503 24.2608 43.5607 24.3059 43.7678 24.3636C44.1554 24.4572 44.5104 24.6538 44.7956 24.9325C45.0807 25.2112 45.2853 25.5617 45.3878 25.947C45.4961 26.3369 45.4896 26.7498 45.3692 27.1362C44.9216 28.179 42.9266 27.9432 41.8094 27.654L41.273 27.5226C40.997 27.4398 40.7198 27.3642 40.4552 27.2676C40.3696 27.2258 40.2788 27.1955 40.1852 27.1776C40.1131 27.2869 40.0231 27.3833 39.9188 27.4626C39.7193 27.6514 39.5005 27.8187 39.266 27.9618L38.3168 32.865L38.1818 33.5928C38.1642 33.7555 38.138 33.9171 38.1032 34.077C38.0021 34.4758 37.7712 34.8296 37.4468 35.0826C37.2425 35.2274 37.0097 35.3272 36.764 35.3754C36.5876 35.4003 36.4091 35.4079 36.2312 35.3982H13.5398C12.8626 35.4836 12.1747 35.3958 11.5406 35.1432C11.237 34.9669 11.0017 34.6934 10.8728 34.3668C10.8324 34.2365 10.8011 34.1036 10.7792 33.969L10.6142 33.1476L9.8414 29.3322L9.6428 28.3458C9.6263 28.1966 9.59494 28.0495 9.5492 27.9066C9.47611 27.8673 9.40802 27.8194 9.3464 27.7638C9.10668 27.6002 8.89512 27.3988 8.72 27.1674C8.45787 27.2751 8.18984 27.3678 7.9172 27.4452C7.7144 27.5088 7.505 27.5586 7.2908 27.618C6.4508 27.8502 5.0504 28.0746 4.1996 27.7008C4.05202 27.6366 3.92055 27.5405 3.8147 27.4193C3.70886 27.2981 3.63129 27.1549 3.5876 27C3.56775 26.9122 3.55392 26.8232 3.5462 26.7336C3.52642 26.5718 3.53107 26.408 3.56 26.2476C3.58985 26.0332 3.64317 25.8227 3.719 25.62C3.8735 25.2899 4.10279 25.0004 4.38868 24.7744C4.67457 24.5484 5.00919 24.3921 5.366 24.318C5.539 24.2754 5.71429 24.2428 5.891 24.2202L6.1538 24.2052L6.3038 24.0924C6.4874 23.961 6.6602 23.8206 6.8366 23.6838C7.1312 23.4546 7.3886 23.1882 7.6766 22.956L7.973 22.6632C8.04143 22.6017 8.10653 22.5366 8.168 22.4682L8.3666 22.2696C8.588 21.9954 8.8562 21.759 9.0758 21.4818C9.4766 20.9754 9.881 20.475 10.2572 19.9398C10.4546 19.6596 10.625 19.3596 10.8014 19.0584L10.9664 18.7098L11.3078 18.1134C11.5514 17.7216 11.8076 17.343 12.0806 16.9806L12.572 16.38L12.9962 15.915L13.1234 15.7914C13.2029 15.6948 13.2922 15.6068 13.3898 15.5286C13.52 15.4236 13.6298 15.2928 13.7612 15.1872C14.0396 14.964 14.3012 14.7144 14.594 14.5044C15.4601 13.8726 16.3907 13.3344 17.3702 12.8988C18.2773 12.51 19.2144 12.1952 20.1722 11.9574C20.6138 11.8452 21.0722 11.7774 21.5336 11.6796C21.9344 11.5956 22.3562 11.5854 22.775 11.5146L23.1578 11.481L23.9342 11.4294ZM23.7842 12.7014C23.7123 12.7223 23.6421 12.7485 23.5742 12.78C23.2867 13.0174 23.0969 13.3527 23.0414 13.7214C23.0102 13.845 23.0036 13.9782 22.9814 14.1114C22.9535 14.3145 22.9574 14.5208 22.9928 14.7228C23.0834 15.2256 23.2064 15.78 23.7056 15.8628C23.8332 15.8513 23.9553 15.806 24.0595 15.7315C24.1637 15.657 24.2462 15.5561 24.2984 15.4392C24.4835 15.0764 24.5846 14.6767 24.5944 14.2696C24.6042 13.8625 24.5223 13.4584 24.3548 13.0872C24.3098 12.9728 24.2311 12.8747 24.1293 12.8059C24.0274 12.737 23.9071 12.7006 23.7842 12.7014ZM28.1 13.3092L27.9614 13.3278C27.8632 13.3512 27.772 13.3975 27.695 13.4628C27.6052 13.6049 27.5617 13.7715 27.5708 13.9394C27.5798 14.1073 27.6408 14.2683 27.7454 14.4C28.0787 14.9223 28.5724 15.3223 29.1524 15.54C29.316 15.619 29.4957 15.6587 29.6774 15.6561C29.859 15.6535 30.0376 15.6086 30.1988 15.525C30.5126 15.2772 30.2858 14.7564 30.1316 14.5194C29.91 14.174 29.611 13.8849 29.2585 13.6748C28.9059 13.4648 28.5093 13.3396 28.1 13.3092ZM19.5284 13.602L19.34 13.62C19.2162 13.6435 19.0945 13.6774 18.9764 13.7214C18.3982 13.9455 17.909 14.3523 17.5832 14.88C17.4392 15.1164 17.2352 15.6306 17.5346 15.8664C17.6834 15.9479 17.8496 15.9929 18.0192 15.9975C18.1889 16.0021 18.3572 15.9662 18.5102 15.8928C19.1615 15.6542 19.7022 15.1843 20.0294 14.5728C20.2454 14.0796 20.1614 13.5966 19.5266 13.6014L19.5284 13.602ZM11.8088 28.542L12.7688 33.3216H36.1256L36.227 32.7702L36.3878 31.92L36.8378 29.5638L37.0364 28.5396C36.8802 28.5391 36.7244 28.5228 36.5714 28.491C36.1904 28.4305 35.8177 28.326 35.4608 28.1796C34.9195 28.4232 34.3585 28.6203 33.7838 28.7688C33.5726 28.8228 33.3602 28.8426 33.131 28.8852C32.6504 28.9652 32.1598 28.964 31.6796 28.8816C31.4068 28.8368 31.1382 28.769 30.8768 28.6788C30.4043 28.4971 29.9599 28.2495 29.5568 27.9432C29.4026 27.8268 29.2712 27.6846 29.1218 27.5646L28.9796 27.42L28.0154 27.8928C27.6074 28.0728 27.2024 28.26 26.7776 28.4292C26.4252 28.5628 26.0645 28.673 25.6976 28.7592C25.4828 28.8132 25.2488 28.839 25.0112 28.8792L24.6926 28.8978H24.362L23.9642 28.9014L23.6156 28.875C23.348 28.8402 23.0825 28.7901 22.8206 28.725C22.3835 28.5992 21.9538 28.449 21.5336 28.275C21.2264 28.1442 20.9288 27.987 20.6294 27.855L19.7438 27.42L19.5338 27.6336L19.3388 27.81L18.956 28.11C18.4812 28.4437 17.9479 28.6855 17.384 28.8228C16.3459 29.0227 15.2726 28.9279 14.2856 28.5492L13.6664 28.3092L13.3778 28.1778L12.9386 28.3392C12.5737 28.4635 12.1918 28.5311 11.8064 28.5396L11.8088 28.542Z" fill="#BEB8C3"/>
</g>
</svg>
