<svg width="133" height="77" viewBox="0 0 133 77" fill="none" xmlns="http://www.w3.org/2000/svg">
<path fill-rule="evenodd" clip-rule="evenodd" d="M64.6001 0.193084C65.7763 0.126954 66.9559 0.151091 68.1284 0.265284L69.7434 0.371684C70.4806 0.500884 71.2273 0.455286 71.9284 0.586386C72.8347 0.755486 73.741 0.776386 74.6017 0.954986C75.9317 1.22859 77.2389 1.38058 78.4853 1.70358C80.4797 2.14098 82.4465 2.69612 84.3753 3.36608C85.1106 3.65488 85.8421 3.86388 86.5603 4.15078C87.7003 4.60488 88.808 5.12928 89.8986 5.61188L91.1811 6.22938L93.1647 7.31048C93.8677 7.73038 94.5612 8.17498 95.2433 8.60438C96.6578 9.53326 98.022 10.5366 99.3302 11.6102C99.9002 12.0643 100.4 12.6267 100.97 13.0827C101.502 13.5141 101.991 13.9957 102.431 14.521L103.311 15.4368L104.747 17.1126C105.716 18.3571 106.672 19.6263 107.527 20.9848C108.017 21.7619 108.462 22.5713 108.929 23.3731C109.165 23.7778 109.309 24.2148 109.535 24.6081C110.08 25.5353 110.648 26.4378 111.258 27.3042C112.431 28.9705 113.728 30.4943 114.988 32.0675L117.122 34.4064L117.538 34.8111C117.881 35.2301 118.267 35.6122 118.689 35.9511L119.628 36.8536C120.477 37.5357 121.25 38.2995 122.123 38.9683C122.693 39.4015 123.244 39.8461 123.833 40.2622L124.366 40.6536L125.411 40.7239C126.085 40.8259 126.751 40.9686 127.406 41.1514C128.634 41.448 129.758 42.0704 130.661 42.9529C131.564 43.8354 132.212 44.9453 132.536 46.1655C132.879 47.4003 132.859 48.7078 132.478 49.9313C131.06 53.2335 124.743 52.4868 121.205 51.571L119.506 51.1549C118.632 50.8927 117.754 50.6533 116.917 50.3474C116.645 50.2151 116.358 50.1193 116.062 50.0624C115.833 50.4087 115.548 50.7138 115.218 50.9649C114.586 51.5627 113.893 52.0926 113.151 52.5457L110.145 68.0725L109.717 70.3772C109.662 70.8923 109.579 71.4042 109.469 71.9105C109.148 73.1733 108.417 74.2936 107.39 75.0949C106.743 75.5533 106.006 75.8693 105.228 76.0221C104.669 76.1009 104.104 76.1251 103.541 76.0943H31.6845C29.5399 76.3646 27.3617 76.0868 25.3537 75.2868C24.3922 74.7286 23.6471 73.8623 23.239 72.8282C23.111 72.4157 23.0119 71.9948 22.9426 71.5685L22.4201 68.9674L19.9729 56.8853L19.344 53.7617C19.2917 53.2894 19.1924 52.8235 19.0476 52.3709C18.8161 52.2465 18.6005 52.0947 18.4054 51.9187C17.6462 51.4007 16.9763 50.7629 16.4218 50.0301C15.5917 50.3711 14.7429 50.6648 13.8796 50.9098C13.2374 51.1112 12.5743 51.2689 11.896 51.457C9.23597 52.1923 4.80137 52.9029 2.10717 51.7192C1.63984 51.5161 1.22351 51.2116 0.888327 50.8278C0.553147 50.444 0.307501 49.9904 0.169172 49.5C0.106316 49.2221 0.0625143 48.9402 0.0380725 48.6564C-0.0245736 48.1441 -0.0098427 47.6253 0.081772 47.1174C0.176278 46.4385 0.345125 45.772 0.585272 45.13C1.07453 44.0848 1.80061 43.168 2.70593 42.4523C3.61124 41.7366 4.67088 41.2418 5.80077 41.007C6.3486 40.8722 6.90367 40.7688 7.46327 40.6973L8.29547 40.6498L8.77047 40.2926C9.35187 39.8765 9.89907 39.4319 10.4577 38.9987C11.3906 38.2729 12.2057 37.4293 13.1177 36.694L14.0563 35.7668C14.273 35.5721 14.4791 35.366 14.6738 35.1493L15.3027 34.5204C16.0038 33.6521 16.8531 32.9035 17.5485 32.0257C18.8177 30.4221 20.0983 28.8375 21.2896 27.1427C21.9147 26.2554 22.4543 25.3054 23.0129 24.3516L23.5354 23.2477L24.6165 21.3591C25.3879 20.1184 26.1992 18.9195 27.0637 17.7719L28.6198 15.87L29.9631 14.3975L30.3659 14.0061C30.6177 13.7004 30.9004 13.4215 31.2095 13.1739C31.6218 12.8414 31.9695 12.4272 32.3856 12.0928C33.2672 11.386 34.0956 10.5956 35.0228 9.93058C37.7654 7.93004 40.7123 6.22573 43.8141 4.84618C46.6866 3.61509 49.6539 2.61815 52.6871 1.86509C54.0855 1.50979 55.5371 1.29508 56.9982 0.985384C58.2674 0.719384 59.6031 0.687084 60.9293 0.462885L62.1415 0.356485L64.6001 0.193084ZM64.1251 4.22109C63.8975 4.2872 63.6752 4.3704 63.4601 4.46998C62.5496 5.22186 61.9488 6.28344 61.7729 7.45108C61.6741 7.84248 61.6532 8.26428 61.5829 8.68608C61.4946 9.32942 61.5068 9.98258 61.619 10.6222C61.9059 12.2144 62.2954 13.97 63.8762 14.2322C64.2801 14.1958 64.667 14.0522 64.997 13.8165C65.327 13.5807 65.5881 13.2611 65.7534 12.8908C66.3395 11.7421 66.6598 10.4763 66.6907 9.18712C66.7216 7.89792 66.4623 6.61826 65.932 5.44279C65.7893 5.08056 65.5403 4.77 65.2178 4.55195C64.8953 4.33389 64.5144 4.21855 64.1251 4.22109ZM77.7918 6.14578L77.3529 6.20468C77.042 6.27889 76.753 6.42535 76.5093 6.63218C76.2248 7.08231 76.0873 7.60979 76.1159 8.14153C76.1445 8.67328 76.3377 9.18297 76.6689 9.59998C77.7242 11.2538 79.2876 12.5206 81.1244 13.21C81.6424 13.4601 82.2116 13.5861 82.7868 13.5778C83.362 13.5696 83.9273 13.4274 84.438 13.1625C85.4317 12.3778 84.7135 10.7286 84.2252 9.97808C83.5233 8.88433 82.5767 7.96874 81.4602 7.30365C80.3437 6.63855 79.0878 6.24216 77.7918 6.14578ZM50.6484 7.07298L50.0518 7.12999C49.6596 7.20446 49.2745 7.31187 48.9004 7.45108C47.0694 8.16081 45.5203 9.44908 44.4886 11.12C44.0326 11.8686 43.3866 13.4969 44.3347 14.2436C44.806 14.5018 45.332 14.6441 45.8693 14.6587C46.4065 14.6732 46.9395 14.5596 47.4241 14.3272C49.4864 13.5716 51.1987 12.0838 52.2349 10.1472C52.9189 8.58538 52.6529 7.05589 50.6427 7.07109L50.6484 7.07298ZM26.203 54.383L29.243 69.5184H103.206L103.527 67.7723L104.036 65.08L105.461 57.6187L106.09 54.3754C105.596 54.3738 105.102 54.3222 104.618 54.2215C103.411 54.0301 102.231 53.6992 101.101 53.2354C99.3869 54.0067 97.6103 54.6309 95.7905 55.1012C95.1217 55.2722 94.4491 55.3349 93.7233 55.4698C92.2014 55.7232 90.6478 55.7193 89.1272 55.4584C88.2631 55.3166 87.4127 55.1017 86.585 54.8162C85.0887 54.2409 83.6814 53.4567 82.405 52.4868C81.9167 52.1182 81.5006 51.6679 81.0275 51.2879L80.5772 50.83L77.5239 52.3272C76.2319 52.8972 74.9494 53.49 73.6042 54.0258C72.4883 54.4488 71.3459 54.7979 70.1842 55.0708C69.504 55.2418 68.763 55.3235 68.0106 55.4508L67.0017 55.5097H65.9548L64.6951 55.5211L63.5912 55.4375C62.7436 55.3273 61.9031 55.1687 61.0737 54.9625C59.6895 54.5643 58.3289 54.0885 56.9982 53.5375C56.0254 53.1233 55.083 52.6255 54.1349 52.2075L51.3305 50.83L50.6655 51.5064L50.048 52.065L48.8358 53.015C47.3321 54.0719 45.6436 54.8375 43.8578 55.2722C40.5705 55.9053 37.1716 55.6051 34.0462 54.4058L32.0854 53.6458L31.1715 53.2297L29.7807 53.7408C28.6251 54.1346 27.4159 54.3486 26.1954 54.3754L26.203 54.383Z" fill="url(#paint0_linear_9_6)"/>
<defs>
<linearGradient id="paint0_linear_9_6" x1="46.248" y1="0.219685" x2="86.5945" y2="76.1" gradientUnits="userSpaceOnUse">
<stop stop-color="#9E1FD6"/>
<stop offset="1" stop-color="#E23BE3"/>
</linearGradient>
</defs>
</svg>
