<svg width="243" height="153" viewBox="0 0 243 153" fill="none" xmlns="http://www.w3.org/2000/svg">
<g filter="url(#filter0_d_54_62)">
<path fill-rule="evenodd" clip-rule="evenodd" d="M118.674 16.5275C120.531 16.4231 122.394 16.4612 124.245 16.6415L126.795 16.8095C127.959 17.0135 129.138 16.9415 130.245 17.1485C131.676 17.4155 133.107 17.4485 134.466 17.7305C136.566 18.1625 138.63 18.4025 140.598 18.9125C143.747 19.6031 146.853 20.4796 149.898 21.5375C151.059 21.9935 152.214 22.3235 153.348 22.7765C155.148 23.4935 156.897 24.3215 158.619 25.0835L160.644 26.0585L163.776 27.7655C164.886 28.4285 165.981 29.1305 167.058 29.8085C169.292 31.2751 171.446 32.8594 173.511 34.5545C174.411 35.2715 175.2 36.1595 176.1 36.8795C176.94 37.5606 177.713 38.3211 178.407 39.1505L179.796 40.5965L182.064 43.2425C183.594 45.2075 185.103 47.2115 186.453 49.3565C187.227 50.5835 187.929 51.8615 188.667 53.1275C189.039 53.7665 189.267 54.4565 189.624 55.0775C190.485 56.5415 191.382 57.9665 192.345 59.3345C194.196 61.9655 196.245 64.3715 198.234 66.8555L201.603 70.5485L202.26 71.1875C202.802 71.8492 203.411 72.4524 204.078 72.9875L205.56 74.4125C206.901 75.4895 208.122 76.6955 209.499 77.7515C210.399 78.4355 211.269 79.1375 212.199 79.7945L213.042 80.4125L214.692 80.5235C215.755 80.6845 216.807 80.9099 217.842 81.1985C219.78 81.6667 221.555 82.6495 222.981 84.0429C224.407 85.4364 225.43 87.1889 225.942 89.1155C226.484 91.0652 226.451 93.1297 225.849 95.0615C223.611 100.275 213.636 99.0965 208.05 97.6505L205.368 96.9935C203.988 96.5795 202.602 96.2015 201.279 95.7185C200.851 95.5096 200.397 95.3583 199.929 95.2685C199.569 95.8153 199.118 96.2971 198.597 96.6935C197.6 97.6375 196.506 98.4741 195.333 99.1895L190.587 123.705L189.912 127.344C189.824 128.158 189.693 128.966 189.519 129.765C189.014 131.759 187.859 133.528 186.237 134.793C185.215 135.517 184.052 136.016 182.823 136.257C181.941 136.382 181.049 136.42 180.159 136.371H66.7022C63.316 136.798 59.8768 136.36 56.7062 135.096C55.1881 134.215 54.0116 132.847 53.3672 131.214C53.1651 130.563 53.0087 129.899 52.8992 129.225L52.0742 125.118L48.2102 106.041L47.2172 101.109C47.1346 100.364 46.9779 99.6281 46.7492 98.9135C46.3837 98.7171 46.0433 98.4774 45.7352 98.1995C44.5366 97.3817 43.4788 96.3746 42.6032 95.2175C41.2925 95.7559 39.9524 96.2197 38.5892 96.6065C37.5752 96.9245 36.5282 97.1735 35.4572 97.4705C31.2572 98.6315 24.2552 99.7535 20.0012 97.8845C19.2633 97.5638 18.6059 97.083 18.0767 96.477C17.5475 95.871 17.1596 95.1548 16.9412 94.3805C16.8419 93.9417 16.7728 93.4967 16.7342 93.0485C16.6353 92.2396 16.6585 91.4204 16.8032 90.6185C16.9524 89.5465 17.219 88.4942 17.5982 87.4805C18.3707 85.8302 19.5171 84.3826 20.9466 83.2526C22.376 82.1226 24.0491 81.3412 25.8332 80.9705C26.6982 80.7577 27.5746 80.5945 28.4582 80.4815L29.7722 80.4065L30.5222 79.8425C31.4402 79.1855 32.3042 78.4835 33.1862 77.7995C34.6592 76.6535 35.9462 75.3215 37.3862 74.1605L38.8682 72.6965C39.2103 72.3891 39.5358 72.0636 39.8432 71.7215L40.8362 70.7285C41.9432 69.3575 43.2842 68.1755 44.3822 66.7895C46.3862 64.2575 48.4082 61.7555 50.2892 59.0795C51.2762 57.6785 52.1282 56.1785 53.0102 54.6725L53.8352 52.9295L55.5422 49.9475C56.7602 47.9885 58.0412 46.0955 59.4062 44.2835L61.8632 41.2805L63.9842 38.9555L64.6202 38.3375C65.0177 37.8548 65.4641 37.4144 65.9522 37.0235C66.6032 36.4985 67.1522 35.8445 67.8092 35.3165C69.2012 34.2005 70.5092 32.9525 71.9732 31.9025C76.3037 28.7437 80.9566 26.0527 85.8542 23.8745C90.3898 21.9306 95.075 20.3565 99.8642 19.1675C102.072 18.6065 104.364 18.2675 106.671 17.7785C108.675 17.3585 110.784 17.3075 112.878 16.9535L114.792 16.7855L118.674 16.5275ZM117.924 22.8875C117.565 22.9919 117.214 23.1232 116.874 23.2805C115.437 24.4676 114.488 26.1438 114.21 27.9875C114.054 28.6055 114.021 29.2715 113.91 29.9375C113.771 30.9533 113.79 31.9846 113.967 32.9945C114.42 35.5085 115.035 38.2805 117.531 38.6945C118.169 38.637 118.78 38.4104 119.301 38.0381C119.822 37.6658 120.234 37.1612 120.495 36.5765C121.421 34.7627 121.926 32.7642 121.975 30.7286C122.024 28.693 121.615 26.6725 120.777 24.8165C120.552 24.2446 120.159 23.7542 119.65 23.4099C119.14 23.0656 118.539 22.8835 117.924 22.8875ZM139.503 25.9265L138.81 26.0195C138.319 26.1366 137.863 26.3679 137.478 26.6945C137.029 27.4052 136.812 28.2381 136.857 29.0777C136.902 29.9173 137.207 30.722 137.73 31.3805C139.396 33.9918 141.865 35.992 144.765 37.0805C145.583 37.4754 146.482 37.6743 147.39 37.6613C148.298 37.6482 149.191 37.4237 149.997 37.0055C151.566 35.7665 150.432 33.1625 149.661 31.9775C148.553 30.2505 147.058 28.8048 145.295 27.7547C143.532 26.7045 141.55 26.0787 139.503 25.9265ZM96.6452 27.3905L95.7032 27.4805C95.084 27.5981 94.4759 27.7677 93.8852 27.9875C90.9941 29.1081 88.5481 31.1422 86.9192 33.7805C86.1992 34.9625 85.1792 37.5335 86.6762 38.7125C87.4204 39.1203 88.251 39.3449 89.0992 39.3679C89.9475 39.3908 90.789 39.2114 91.5542 38.8445C94.8105 37.6514 97.5141 35.3023 99.1502 32.2445C100.23 29.7785 99.8102 27.3635 96.6362 27.3875L96.6452 27.3905ZM58.0472 102.09L62.8472 125.988H179.631L180.138 123.231L180.942 118.98L183.192 107.199L184.185 102.078C183.404 102.076 182.625 101.995 181.86 101.835C179.955 101.533 178.092 101.011 176.307 100.278C173.601 101.496 170.796 102.482 167.922 103.224C166.866 103.494 165.804 103.593 164.658 103.806C162.255 104.207 159.802 104.201 157.401 103.788C156.037 103.565 154.694 103.225 153.387 102.774C151.025 101.866 148.803 100.628 146.787 99.0965C146.016 98.5145 145.359 97.8035 144.612 97.2035L143.901 96.4805L139.08 98.8445C137.04 99.7445 135.015 100.68 132.891 101.526C131.129 102.194 129.325 102.746 127.491 103.176C126.417 103.446 125.247 103.575 124.059 103.776L122.466 103.869H120.813L118.824 103.887L117.081 103.755C115.743 103.581 114.416 103.331 113.106 103.005C110.921 102.377 108.772 101.626 106.671 100.755C105.135 100.101 103.647 99.3155 102.15 98.6555L97.7222 96.4805L96.6722 97.5485L95.6972 98.4305L93.7832 99.9305C91.409 101.599 88.7429 102.808 85.9232 103.494C80.7328 104.494 75.3661 104.02 70.4312 102.126L67.3352 100.926L65.8922 100.269L63.6962 101.076C61.8716 101.698 59.9623 102.036 58.0352 102.078L58.0472 102.09Z" fill="url(#paint0_linear_54_62)"/>
</g>
<defs>
<filter id="filter0_d_54_62" x="0.674072" y="0.470093" width="241.652" height="152.06" filterUnits="userSpaceOnUse" color-interpolation-filters="sRGB">
<feFlood flood-opacity="0" result="BackgroundImageFix"/>
<feColorMatrix in="SourceAlpha" type="matrix" values="0 0 0 0 0 0 0 0 0 0 0 0 0 0 0 0 0 0 127 0" result="hardAlpha"/>
<feOffset/>
<feGaussianBlur stdDeviation="8"/>
<feComposite in2="hardAlpha" operator="out"/>
<feColorMatrix type="matrix" values="0 0 0 0 0.027451 0 0 0 0 0.607843 0 0 0 0 0.92549 0 0 0 0.5 0"/>
<feBlend mode="normal" in2="BackgroundImageFix" result="effect1_dropShadow_54_62"/>
<feBlend mode="normal" in="SourceGraphic" in2="effect1_dropShadow_54_62" result="shape"/>
</filter>
<linearGradient id="paint0_linear_54_62" x1="89.6972" y1="16.5695" x2="153.402" y2="136.38" gradientUnits="userSpaceOnUse">
<stop stop-color="#0A6EE2"/>
<stop offset="1" stop-color="#07AAF0"/>
</linearGradient>
</defs>
</svg>
