<svg width="427" height="205" viewBox="0 0 427 205" fill="none" xmlns="http://www.w3.org/2000/svg">
<g filter="url(#filter0_d_58_91)">
<path fill-rule="evenodd" clip-rule="evenodd" d="M210.674 42.5274C212.531 42.423 214.394 42.4611 216.245 42.6414L218.795 42.8094C219.959 43.0134 221.138 42.9414 222.245 43.1484C223.676 43.4154 225.107 43.4484 226.466 43.7304C228.566 44.1624 230.63 44.4024 232.598 44.9124C235.747 45.603 238.853 46.4796 241.898 47.5374C243.059 47.9934 244.214 48.3234 245.348 48.7764C247.148 49.4934 248.897 50.3214 250.619 51.0834L252.644 52.0584L255.776 53.7654C256.886 54.4284 257.981 55.1304 259.058 55.8084C261.292 57.2751 263.446 58.8593 265.511 60.5544C266.411 61.2714 267.2 62.1594 268.1 62.8794C268.94 63.5605 269.713 64.3211 270.407 65.1504L271.796 66.5964L274.064 69.2424C275.594 71.2074 277.103 73.2114 278.453 75.3564C279.227 76.5834 279.929 77.8614 280.667 79.1274C281.039 79.7664 281.267 80.4564 281.624 81.0774C282.485 82.5414 283.382 83.9664 284.345 85.3344C286.196 87.9654 288.245 90.3714 290.234 92.8554L293.603 96.5484L294.26 97.1874C294.802 97.8491 295.411 98.4524 296.078 98.9874L297.56 100.412C298.901 101.489 300.122 102.695 301.499 103.751C302.399 104.435 303.269 105.137 304.199 105.794L305.042 106.412L306.692 106.523C307.755 106.684 308.807 106.91 309.842 107.198C311.78 107.667 313.555 108.649 314.981 110.043C316.407 111.436 317.43 113.189 317.942 115.115C318.484 117.065 318.451 119.13 317.849 121.061C315.611 126.275 305.636 125.096 300.05 123.65L297.368 122.993C295.988 122.579 294.602 122.201 293.279 121.718C292.851 121.51 292.397 121.358 291.929 121.268C291.569 121.815 291.118 122.297 290.597 122.693C289.6 123.637 288.506 124.474 287.333 125.189L282.587 149.705L281.912 153.344C281.824 154.158 281.693 154.966 281.519 155.765C281.014 157.759 279.859 159.528 278.237 160.793C277.215 161.517 276.052 162.016 274.823 162.257C273.941 162.382 273.049 162.42 272.159 162.371H158.702C155.316 162.798 151.877 162.36 148.706 161.096C147.188 160.215 146.012 158.847 145.367 157.214C145.165 156.563 145.009 155.899 144.899 155.225L144.074 151.118L140.21 132.041L139.217 127.109C139.135 126.364 138.978 125.628 138.749 124.913C138.384 124.717 138.043 124.477 137.735 124.199C136.537 123.382 135.479 122.374 134.603 121.217C133.293 121.756 131.952 122.22 130.589 122.606C129.575 122.924 128.528 123.173 127.457 123.47C123.257 124.631 116.255 125.753 112.001 123.884C111.263 123.564 110.606 123.083 110.077 122.477C109.547 121.871 109.16 121.155 108.941 120.38C108.842 119.942 108.773 119.497 108.734 119.048C108.635 118.24 108.659 117.42 108.803 116.618C108.952 115.546 109.219 114.494 109.598 113.48C110.371 111.83 111.517 110.383 112.947 109.253C114.376 108.123 116.049 107.341 117.833 106.97C118.698 106.758 119.575 106.594 120.458 106.481L121.772 106.406L122.522 105.842C123.44 105.185 124.304 104.483 125.186 103.799C126.659 102.653 127.946 101.321 129.386 100.16L130.868 98.6964C131.21 98.389 131.536 98.0636 131.843 97.7214L132.836 96.7284C133.943 95.3574 135.284 94.1754 136.382 92.7894C138.386 90.2574 140.408 87.7554 142.289 85.0794C143.276 83.6784 144.128 82.1784 145.01 80.6724L145.835 78.9294L147.542 75.9474C148.76 73.9884 150.041 72.0954 151.406 70.2834L153.863 67.2804L155.984 64.9554L156.62 64.3374C157.018 63.8547 157.464 63.4144 157.952 63.0234C158.603 62.4984 159.152 61.8444 159.809 61.3164C161.201 60.2004 162.509 58.9524 163.973 57.9024C168.304 54.7437 172.957 52.0526 177.854 49.8744C182.39 47.9306 187.075 46.3565 191.864 45.1674C194.072 44.6064 196.364 44.2674 198.671 43.7784C200.675 43.3584 202.784 43.3074 204.878 42.9534L206.792 42.7854L210.674 42.5274ZM209.924 48.8874C209.565 48.9918 209.214 49.1232 208.874 49.2804C207.437 50.4676 206.488 52.1438 206.21 53.9874C206.054 54.6054 206.021 55.2714 205.91 55.9374C205.771 56.9532 205.79 57.9845 205.967 58.9944C206.42 61.5084 207.035 64.2804 209.531 64.6944C210.169 64.6369 210.78 64.4103 211.301 64.038C211.822 63.6657 212.234 63.1612 212.495 62.5764C213.421 60.7627 213.926 58.7641 213.975 56.7285C214.024 54.6929 213.615 52.6724 212.777 50.8164C212.552 50.2445 212.159 49.7541 211.65 49.4098C211.14 49.0655 210.539 48.8834 209.924 48.8874ZM231.503 51.9264L230.81 52.0194C230.319 52.1366 229.863 52.3678 229.478 52.6944C229.029 53.4051 228.812 54.238 228.857 55.0776C228.902 55.9172 229.207 56.722 229.73 57.3804C231.396 59.9918 233.865 61.9919 236.765 63.0804C237.583 63.4754 238.482 63.6742 239.39 63.6612C240.298 63.6482 241.191 63.4236 241.997 63.0054C243.566 61.7664 242.432 59.1624 241.661 57.9774C240.553 56.2504 239.058 54.8048 237.295 53.7546C235.532 52.7045 233.55 52.0786 231.503 51.9264ZM188.645 53.3904L187.703 53.4804C187.084 53.598 186.476 53.7676 185.885 53.9874C182.994 55.108 180.548 57.1422 178.919 59.7804C178.199 60.9624 177.179 63.5334 178.676 64.7124C179.42 65.1202 180.251 65.3449 181.099 65.3678C181.948 65.3908 182.789 65.2114 183.554 64.8444C186.81 63.6513 189.514 61.3022 191.15 58.2444C192.23 55.7784 191.81 53.3634 188.636 53.3874L188.645 53.3904ZM150.047 128.09L154.847 151.988H271.631L272.138 149.231L272.942 144.98L275.192 133.199L276.185 128.078C275.404 128.076 274.625 127.995 273.86 127.835C271.955 127.533 270.092 127.011 268.307 126.278C265.601 127.496 262.796 128.482 259.922 129.224C258.866 129.494 257.804 129.593 256.658 129.806C254.255 130.207 251.802 130.2 249.401 129.788C248.037 129.564 246.694 129.225 245.387 128.774C243.025 127.866 240.803 126.628 238.787 125.096C238.016 124.514 237.359 123.803 236.612 123.203L235.901 122.48L231.08 124.844C229.04 125.744 227.015 126.68 224.891 127.526C223.129 128.194 221.325 128.746 219.491 129.176C218.417 129.446 217.247 129.575 216.059 129.776L214.466 129.869H212.813L210.824 129.887L209.081 129.755C207.743 129.581 206.416 129.331 205.106 129.005C202.921 128.377 200.772 127.625 198.671 126.755C197.135 126.101 195.647 125.315 194.15 124.655L189.722 122.48L188.672 123.548L187.697 124.43L185.783 125.93C183.409 127.599 180.743 128.808 177.923 129.494C172.733 130.494 167.366 130.02 162.431 128.126L159.335 126.926L157.892 126.269L155.696 127.076C153.872 127.698 151.962 128.036 150.035 128.078L150.047 128.09Z" fill="url(#paint0_linear_58_91)"/>
</g>
<defs>
<filter id="filter0_d_58_91" x="92.6741" y="26.47" width="241.652" height="152.06" filterUnits="userSpaceOnUse" color-interpolation-filters="sRGB">
<feFlood flood-opacity="0" result="BackgroundImageFix"/>
<feColorMatrix in="SourceAlpha" type="matrix" values="0 0 0 0 0 0 0 0 0 0 0 0 0 0 0 0 0 0 127 0" result="hardAlpha"/>
<feOffset/>
<feGaussianBlur stdDeviation="8"/>
<feComposite in2="hardAlpha" operator="out"/>
<feColorMatrix type="matrix" values="0 0 0 0 0.921569 0 0 0 0 0.572549 0 0 0 0 0.105882 0 0 0 0.24 0"/>
<feBlend mode="normal" in2="BackgroundImageFix" result="effect1_dropShadow_58_91"/>
<feBlend mode="normal" in="SourceGraphic" in2="effect1_dropShadow_58_91" result="shape"/>
</filter>
<linearGradient id="paint0_linear_58_91" x1="181.697" y1="42.5694" x2="245.402" y2="162.38" gradientUnits="userSpaceOnUse">
<stop stop-color="#CA1D5A"/>
<stop offset="1" stop-color="#F93743"/>
</linearGradient>
</defs>
</svg>
