<svg width="32" height="32" viewBox="0 0 32 32" fill="none" xmlns="http://www.w3.org/2000/svg">
<g clip-path="url(#clip0_37_93)">
<path d="M15.4514 0.64C7.00343 0.64 0.0914307 7.552 0.0914307 16C0.0914307 24.448 7.00343 31.36 15.4514 31.36C23.8994 31.36 30.8114 24.448 30.8114 16C30.8114 7.552 23.8994 0.64 15.4514 0.64ZM6.89372 24.5577C4.58972 22.2537 3.38286 19.1817 3.38286 16.2194L15.3417 28.0686C12.2697 27.9589 9.19772 26.8617 6.89372 24.5577ZM18.0846 27.7394L3.712 13.3669C4.91886 7.99086 9.74629 3.93143 15.4514 3.93143C19.5109 3.93143 23.0217 5.90629 25.216 8.86857L23.5703 10.2949C21.7051 7.77143 18.7429 6.12571 15.4514 6.12571C11.1726 6.12571 7.552 8.86857 6.12572 12.7086L18.7429 25.3257C21.9246 24.2286 24.3383 21.4857 25.1063 18.1943H19.84V16H27.52C27.52 21.7051 23.4606 26.5326 18.0846 27.7394Z" fill="#8B54FF"/>
</g>
<defs>
<clipPath id="clip0_37_93">
<rect width="32" height="30.72" fill="white" transform="translate(0 0.64)"/>
</clipPath>
</defs>
</svg>
