<svg width="30" height="30" viewBox="0 0 30 30" fill="none" xmlns="http://www.w3.org/2000/svg">
<path d="M22.2656 28.1249C22.1543 28.1835 22.166 28.2011 22.2715 28.1483L22.3594 28.0897C22.3594 28.0722 22.3594 28.0722 22.2656 28.1249ZM22.4883 28.0018L22.5 28.0194L22.5645 27.9725L22.4883 28.0018ZM22.6348 27.9139L22.6465 27.9315L22.7109 27.8847L22.6348 27.9139ZM22.7812 27.8261L22.7871 27.8378L22.8516 27.7909L22.7812 27.8261ZM22.9805 27.6972C22.8809 27.7675 22.8398 27.8085 22.9336 27.7616L23.0859 27.6386L22.9805 27.6972ZM14.0156 0.00574418C13.9453 0.0116036 13.7402 0.0291817 13.5645 0.0467598C9.29883 0.433479 5.31445 2.73035 2.7832 6.26356C1.38281 8.19715 0.480469 10.453 0.134766 12.8143C0.0175781 13.6405 0 13.8807 0 14.9999C0 16.119 0.0175781 16.3593 0.134766 17.1796C0.949219 22.8163 4.95703 27.5448 10.3945 29.2968C11.373 29.6073 12.3984 29.8241 13.5645 29.9589C14.0156 30.0057 15.9785 30.0057 16.4355 29.9589C18.4512 29.7362 20.1562 29.2382 21.8438 28.3768C22.1016 28.2479 22.1484 28.2128 22.1191 28.1835C21.293 27.0936 20.4844 26.0038 19.6758 24.9081L17.2793 21.6737L14.2793 17.2264C13.2773 15.7382 12.2754 14.2557 11.25 12.7792C11.2383 12.7792 11.2266 14.7538 11.2207 17.1679C11.209 21.3925 11.209 21.5624 11.1562 21.662C11.1035 21.7792 11.0156 21.8788 10.8984 21.9315C10.8047 21.9725 10.7227 21.9843 10.2773 21.9843H9.76758L9.63281 21.9022C9.55078 21.8495 9.48047 21.7733 9.43945 21.6854L9.375 21.5507L9.38086 15.6737L9.39258 9.79676L9.48633 9.67957L9.70313 9.50379C9.82617 9.4452 9.87305 9.43348 10.3828 9.43348C10.9805 9.43348 11.0742 9.45692 11.2324 9.62684C12.4453 11.4374 13.6582 13.2538 14.8477 15.0761C16.7988 18.0292 19.459 22.0604 20.7656 24.0409L23.1445 27.6386L23.2617 27.5624C24.4043 26.8007 25.4414 25.8925 26.3438 24.8554C28.2363 22.6932 29.4609 20.0331 29.877 17.1913C30 16.3651 30.0117 16.1249 30.0117 15.0057C30.0117 13.8866 29.9941 13.6464 29.877 12.8261C29.0449 7.18348 25.0371 2.45496 19.6055 0.70301C18.5918 0.380744 17.543 0.163947 16.4883 0.0526192C16.2012 0.0174629 14.2617 -0.0176933 14.0156 0.00574418ZM20.1563 9.08192C20.2969 9.14637 20.4023 9.27528 20.4551 9.42176C20.4785 9.49793 20.4844 11.1327 20.4785 14.8007L20.4668 20.0741L19.541 18.6503L18.6094 17.2264V13.4003C18.6094 10.9159 18.6211 9.52723 18.6328 9.45692C18.6738 9.29871 18.7852 9.16981 18.9258 9.08778C19.043 9.02918 19.084 9.02332 19.5527 9.02332C19.9863 9.01746 20.0566 9.02332 20.1563 9.08192Z" fill="#ffffff"/>
</svg>
