<svg width="36" height="36" viewBox="0 0 36 36" fill="none" xmlns="http://www.w3.org/2000/svg">
<path d="M18 19.545C19.4788 19.545 20.6775 18.3462 20.6775 16.8675C20.6775 15.3888 19.4788 14.19 18 14.19C16.5213 14.19 15.3225 15.3888 15.3225 16.8675C15.3225 18.3462 16.5213 19.545 18 19.545Z" fill="#2A8AE2"/>
<path d="M10.503 22.191L9.91048 22.0395C5.50948 20.928 2.98499 19.038 2.98499 16.8615C2.98499 14.6835 5.51098 12.795 9.91048 11.6835L10.503 11.5335L10.6695 12.12C11.1143 13.6555 11.6842 15.1521 12.3735 16.5945L12.501 16.8615L12.3735 17.1285C11.6835 18.573 11.112 20.07 10.6695 21.606L10.503 22.191ZM9.63749 13.0485C6.29399 13.9905 4.24049 15.4275 4.24049 16.8615C4.24049 18.2925 6.29249 19.731 9.63749 20.6715C10.047 19.3695 10.542 18.096 11.115 16.8615C10.5378 15.6249 10.0442 14.3511 9.63749 13.0485ZM25.4955 22.191L25.3305 21.603C24.8845 20.0672 24.3141 18.5702 23.625 17.127L23.4975 16.8615L23.625 16.593C24.315 15.1515 24.8835 13.653 25.3305 12.117L25.4955 11.532L26.088 11.682C30.4905 12.7935 33.0135 14.682 33.0135 16.8615C33.0135 19.0395 30.489 20.928 26.088 22.0395L25.4955 22.191ZM24.8805 16.8615C25.4805 18.1605 25.98 19.4385 26.361 20.6715C29.706 19.731 31.7595 18.2925 31.7595 16.8615C31.7595 15.4275 29.7075 13.992 26.361 13.0485C25.9519 14.3507 25.4573 15.6245 24.8805 16.8615Z" fill="#2A8AE2"/>
<path d="M9.6285 13.0425L9.4635 12.4575C8.2245 8.0955 8.5995 4.971 10.494 3.882C12.3465 2.8095 15.327 4.077 18.4485 7.2795L18.8745 7.7175L18.4485 8.154C17.3398 9.30703 16.3265 10.5481 15.4185 11.865L15.249 12.108L14.955 12.132C13.3584 12.2574 11.7746 12.5127 10.2195 12.8955L9.6285 13.0425ZM12.0015 4.749C11.6655 4.749 11.3685 4.8225 11.118 4.9665C9.876 5.682 9.657 8.1735 10.512 11.5365C11.8485 11.241 13.197 11.0295 14.556 10.911C15.3428 9.79508 16.2011 8.73135 17.1255 7.7265C15.171 5.826 13.326 4.749 12.0015 4.749ZM23.997 30.225C22.215 30.225 19.926 28.881 17.55 26.442L17.1255 26.0055L17.55 25.5705C18.6589 24.4156 19.6727 23.1731 20.5815 21.855L20.7495 21.615L21.0405 21.5865C22.6377 21.4633 24.222 21.209 25.7775 20.826L26.37 20.676L26.5365 21.2625C27.7695 25.6215 27.396 28.7505 25.5045 29.8395C25.0452 30.0998 24.5248 30.2329 23.997 30.225ZM18.8745 25.995C20.8275 27.8955 22.674 28.974 23.997 28.974C24.3345 28.974 24.6315 28.899 24.8805 28.7565C26.124 28.0395 26.3445 25.5435 25.4865 22.1805C24.1515 22.4775 22.8015 22.6905 21.4395 22.809C20.6561 23.9267 19.7992 24.991 18.8745 25.995Z" fill="#2A8AE2"/>
<path d="M26.37 13.0425L25.7775 12.894C24.2221 12.51 22.6378 12.2547 21.0405 12.1305L20.7495 12.105L20.5815 11.862C19.6739 10.5444 18.66 9.30324 17.55 8.151L17.1255 7.7145L17.55 7.2795C20.67 4.0785 23.649 2.811 25.5045 3.882C27.3975 4.9725 27.774 8.097 26.5365 12.4575L26.37 13.0425ZM21.4395 10.911C22.8705 11.0385 24.2265 11.253 25.4865 11.5365C26.343 8.1735 26.124 5.682 24.8805 4.965C23.6445 4.2495 21.318 5.3445 18.8745 7.7265C19.7985 8.7315 20.6565 9.7935 21.4395 10.911ZM12.0015 30.225C11.4737 30.2325 10.9534 30.0995 10.494 29.8395C8.59951 28.7505 8.22451 25.623 9.46201 21.2625L9.62401 20.676L10.2165 20.826C11.6625 21.1905 13.2555 21.447 14.9535 21.5865L15.2445 21.615L15.414 21.855C16.32 23.172 17.334 24.4155 18.444 25.5705L18.87 26.0055L18.444 26.442C16.0695 28.8825 13.7805 30.225 12.0015 30.225ZM10.512 22.182C9.65701 25.545 9.87601 28.041 11.118 28.758C12.3555 29.463 14.6745 28.3755 17.1255 25.995C16.2014 24.9898 15.3432 23.9261 14.556 22.8105C13.1957 22.6902 11.8447 22.4802 10.512 22.182Z" fill="#2A8AE2"/>
<path d="M18 22.9695C16.9695 22.9695 15.912 22.926 14.85 22.8375L14.556 22.812L14.3865 22.569C13.7876 21.7078 13.2242 20.8226 12.6975 19.9155C12.1747 19.0059 11.6888 18.0757 11.241 17.127L11.115 16.8615L11.241 16.593C11.6895 15.645 12.174 14.715 12.6975 13.806C13.218 12.912 13.7865 12.018 14.3865 11.151L14.556 10.911L14.85 10.884C16.9453 10.7085 19.0517 10.7085 21.147 10.884L21.438 10.9125L21.6075 11.1525C22.8072 12.8756 23.8608 14.696 24.7575 16.5945L24.882 16.863L24.7575 17.1285C23.8633 19.0283 22.8095 20.8489 21.6075 22.5705L21.438 22.8135L21.147 22.839C20.088 22.9245 19.029 22.9695 18 22.9695ZM15.249 21.6135C17.1015 21.753 18.8985 21.753 20.7495 21.6135C21.7828 20.1003 22.7014 18.5119 23.4975 16.8615C22.7042 15.2096 21.7855 13.621 20.7495 12.1095C18.9187 11.9685 17.0798 11.9685 15.249 12.1095C14.2121 13.6204 13.2934 15.2092 12.501 16.8615C13.2988 18.511 14.2173 20.0993 15.249 21.6135Z" fill="#2A8AE2"/>
</svg>
