<svg width="26" height="32" viewBox="0 0 26 32" fill="none" xmlns="http://www.w3.org/2000/svg">
<path fill-rule="evenodd" clip-rule="evenodd" d="M24.8579 24.4065C25.127 27.9883 25.127 29.6673 25.127 31.5H17.1281C17.1281 31.1007 17.135 30.7355 17.1419 30.3652C17.1635 29.2141 17.1861 28.0137 17.0061 25.5895C16.7682 22.0406 15.2931 21.2519 12.5806 21.2519H10.1775H0V14.7947H12.9613C16.3875 14.7947 18.1005 13.7148 18.1005 10.8559C18.1005 8.34209 16.3875 6.81857 12.9613 6.81857H0V0.5H14.3888C22.1454 0.5 26 4.29549 26 10.3584C26 14.8932 23.2876 17.8507 19.6234 18.3436C22.7165 18.9845 24.5247 20.8083 24.8579 24.4065Z" fill="white"/>
<path d="M0 31.5V26.5H8.31053C9.69868 26.5 10 27.6276 10 28.2999V31.5H0Z" fill="white"/>
</svg>
