<svg width="26" height="32" viewBox="0 0 26 32" fill="none" xmlns="http://www.w3.org/2000/svg">
<g clip-path="url(#clip0_30_65)">
<path d="M24.3392 4.51469C21.4386 0.363296 15.7098 -0.867202 11.5679 1.77173L4.29503 6.40813C3.31202 7.02619 2.46881 7.8426 1.81933 8.80515C1.16985 9.7677 0.728402 10.8552 0.523213 11.9981C0.176301 13.9229 0.481336 15.9085 1.39003 17.6405C0.767272 18.585 0.342505 19.646 0.141401 20.7594C-0.0657628 21.9252 -0.038076 23.1206 0.222838 24.2756C0.483752 25.4305 0.972642 26.5218 1.66084 27.4853C4.56138 31.6373 10.2905 32.868 14.4319 30.2283L21.7064 25.5919C22.6891 24.9737 23.5321 24.1573 24.1813 23.1947C24.8305 22.2322 25.2716 21.1447 25.4765 20.0019C25.824 18.0772 25.5198 16.0916 24.6119 14.3592C25.2343 13.4147 25.6587 12.3538 25.8597 11.2406C26.0671 10.0748 26.0396 8.87936 25.7787 7.72438C25.5179 6.56939 25.0289 5.47814 24.3406 4.51469" fill="#e45300"/>
<path d="M10.8572 27.876C9.71245 28.1736 8.50393 28.1127 7.39486 27.7016C6.28579 27.2905 5.32958 26.5489 4.65537 25.5771C4.24157 24.9978 3.94761 24.3416 3.79072 23.6472C3.63383 22.9528 3.61716 22.234 3.7417 21.5331C3.78385 21.3029 3.8419 21.076 3.91545 20.8539L4.05239 20.4356L4.42528 20.7092C5.28565 21.3418 6.24773 21.8228 7.27004 22.1316L7.54029 22.2136L7.51547 22.4835C7.48264 22.8672 7.58668 23.25 7.80915 23.5643C8.01216 23.8573 8.30023 24.0808 8.63442 24.2048C8.96862 24.3287 9.33281 24.3471 9.67777 24.2573C9.83559 24.2154 9.98607 24.1495 10.124 24.0621L17.3982 19.4251C17.5763 19.3131 17.729 19.1652 17.8467 18.9908C17.9644 18.8164 18.0444 18.6195 18.0818 18.4125C18.1191 18.2012 18.114 17.9845 18.0667 17.7752C18.0193 17.5659 17.9308 17.3681 17.8063 17.1934C17.6032 16.9004 17.3152 16.6769 16.981 16.5528C16.6468 16.4288 16.2827 16.4103 15.9376 16.4998C15.7798 16.5418 15.6293 16.6076 15.4914 16.695L12.7155 18.4646C12.2587 18.7548 11.7602 18.9736 11.2374 19.1133C10.0926 19.4109 8.88406 19.3501 7.77498 18.939C6.6659 18.5278 5.7097 17.7863 5.03551 16.8144C4.62159 16.2351 4.32754 15.579 4.1706 14.8846C4.01365 14.1901 3.99698 13.4713 4.12156 12.7704C4.24518 12.0831 4.51087 11.4292 4.90164 10.8505C5.29242 10.2718 5.79967 9.78108 6.39095 9.40964L13.666 4.77351C14.1227 4.48288 14.6212 4.26383 15.1442 4.12396C16.2889 3.82639 17.4975 3.88728 18.6065 4.2984C19.7156 4.70952 20.6718 5.45107 21.346 6.42292C21.7599 7.00222 22.0539 7.65833 22.2108 8.35276C22.3678 9.04719 22.3845 9.76597 22.26 10.4669C22.2175 10.697 22.1593 10.9239 22.0859 11.1461L21.949 11.5644L21.5764 11.2914C20.7161 10.6587 19.754 10.1776 18.7316 9.86898L18.4611 9.78699L18.4862 9.51701C18.519 9.13318 18.415 8.75011 18.1928 8.43545C17.9898 8.1425 17.7017 7.91895 17.3675 7.795C17.0333 7.67105 16.6691 7.65269 16.3242 7.74238C16.1664 7.78435 16.0159 7.85019 15.8779 7.93761L8.60178 12.5749C8.42378 12.6868 8.2711 12.8347 8.1535 13.009C8.03589 13.1833 7.95594 13.3803 7.91875 13.5873C7.88126 13.7986 7.88627 14.0152 7.93349 14.2246C7.9807 14.434 8.06918 14.6318 8.19375 14.8066C8.39682 15.0995 8.68488 15.3231 9.01903 15.4471C9.35318 15.5712 9.71735 15.5897 10.0624 15.5002C10.2202 15.4581 10.3706 15.3923 10.5086 15.305L13.2842 13.5362C13.7408 13.2455 14.2393 13.0265 14.7624 12.8869C15.9071 12.5893 17.1156 12.6502 18.2246 13.0614C19.3336 13.4725 20.2898 14.214 20.9639 15.1859C21.3778 15.7652 21.6719 16.4213 21.8288 17.1157C21.9858 17.8102 22.0025 18.5289 21.8779 19.2299C21.7545 19.9172 21.4891 20.5711 21.0987 21.15C20.7083 21.7288 20.2014 22.2199 19.6104 22.5918L12.3354 27.2265C11.8787 27.5172 11.3802 27.7362 10.8572 27.876Z" fill="white"/>
</g>
<defs>
<clipPath id="clip0_30_65">
<rect width="26" height="31.2366" fill="white" transform="translate(0 0.381703)"/>
</clipPath>
</defs>
</svg>
